<?xml version="1.0" encoding="UTF-8"?>
<svg id="Logo" xmlns="http://www.w3.org/2000/svg" viewBox="0 0 500 339.43">
  <path d="M16.82,309.27l5.74,15.3h-11.53l5.79-15.3ZM14.37,303.7L.52,338.5h5.37l3.66-9.7h14.55l3.67,9.7h5.68l-13.87-34.8h-5.21Z"/>
  <path d="M56.8,331.57c-.52.75-1.21,1.32-2.04,1.71-.82.38-1.74.62-2.73.72-.98.1-1.95.16-2.86.16h-6.16v-11.69h6.48c.88,0,1.81.07,2.76.23.95.16,1.82.46,2.62.91.81.46,1.46,1.07,1.97,1.84.52.77.78,1.76.78,3.02s-.27,2.36-.81,3.1M43,308.03h6.32c.78,0,1.56.06,2.33.17.78.13,1.49.38,2.13.74.64.36,1.16.87,1.55,1.52.39.64.58,1.48.58,2.53,0,.94-.19,1.74-.58,2.39-.39.67-.91,1.2-1.55,1.62-.64.42-1.35.72-2.13.91-.77.2-1.55.29-2.33.29h-6.32v-10.17ZM59.94,322.21c-.78-.67-1.62-1.16-2.52-1.49-.91-.32-1.74-.55-2.47-.65.56-.07,1.2-.29,1.88-.68.69-.38,1.33-.88,1.91-1.5.59-.64,1.08-1.4,1.49-2.3.4-.91.61-1.91.61-3.02,0-1.23-.22-2.37-.65-3.44-.45-1.08-1.11-2.02-2-2.82-.88-.81-2.01-1.43-3.34-1.91-1.35-.46-2.95-.71-4.79-.71h-12v34.8h11.37c1.84,0,3.57-.14,5.21-.46,1.62-.32,3.04-.85,4.22-1.62,1.19-.77,2.13-1.76,2.81-2.99.69-1.24,1.04-2.79,1.04-4.67,0-1.56-.26-2.88-.8-3.93-.54-1.07-1.19-1.92-1.97-2.59"/>
  <path d="M91.91,324.04c0,1.56-.14,3.01-.42,4.31-.29,1.3-.78,2.42-1.46,3.36-.69.94-1.62,1.66-2.76,2.17-1.16.51-2.6.75-4.32.75s-3.24-.25-4.38-.75c-1.16-.51-2.08-1.23-2.76-2.17-.69-.94-1.19-2.05-1.46-3.36-.29-1.3-.43-2.75-.43-4.31v-20.35h-5.09v21.55c0,1.98.27,3.83.85,5.55.56,1.72,1.43,3.23,2.59,4.48,1.17,1.27,2.65,2.27,4.41,3.01,1.78.72,3.86,1.1,6.28,1.1s4.48-.38,6.26-1.1c1.76-.74,3.23-1.74,4.38-3.01,1.14-1.26,2-2.76,2.57-4.48.56-1.72.84-3.57.84-5.55v-21.55h-5.09v20.35Z"/>
  <path d="M136.44,330.8c-2.47,2.14-5.92,3.2-10.34,3.2h-6.58v-25.82h6.42c4.71,0,8.26,1.11,10.63,3.37,2.37,2.24,3.56,5.48,3.56,9.72s-1.23,7.39-3.69,9.53M140.07,307.89c-1.71-1.45-3.73-2.5-6.07-3.18-2.36-.68-4.93-1.01-7.74-1.01h-11.85v34.8h11.8c2.79,0,5.38-.35,7.75-1.04,2.37-.69,4.4-1.76,6.1-3.21,1.69-1.45,3.02-3.25,3.98-5.44.95-2.17,1.43-4.71,1.43-7.64s-.48-5.63-1.43-7.82c-.95-2.2-2.29-4.01-3.98-5.45"/>
  <polygon points="176.88 303.7 176.88 318.25 157.48 318.25 157.48 303.7 152.39 303.7 152.39 338.5 157.48 338.5 157.48 322.73 176.88 322.73 176.88 338.5 181.97 338.5 181.97 303.7 176.88 303.7"/>
  <path d="M202.83,309.27l5.74,15.3h-11.51l5.77-15.3ZM200.4,303.7l-13.86,34.8h5.35l3.67-9.7h14.54l3.67,9.7h5.68l-13.86-34.8h-5.21Z"/>
  <path d="M242.82,331.57c-.52.75-1.21,1.32-2.04,1.71-.84.38-1.75.62-2.73.72-1,.1-1.95.16-2.86.16h-6.16v-11.69h6.46c.9,0,1.81.07,2.78.23.95.16,1.82.46,2.62.91.8.46,1.46,1.07,1.97,1.84.52.77.77,1.76.77,3.02s-.26,2.36-.8,3.1M229.02,308.03h6.32c.77,0,1.55.06,2.33.17.78.13,1.49.38,2.13.74.64.36,1.14.87,1.55,1.52.38.64.58,1.48.58,2.53,0,.94-.2,1.74-.58,2.39-.4.67-.91,1.2-1.55,1.62-.64.42-1.35.72-2.13.91-.78.2-1.56.29-2.33.29h-6.32v-10.17ZM245.96,322.21c-.78-.67-1.62-1.16-2.52-1.49-.91-.32-1.74-.55-2.47-.65.56-.07,1.19-.29,1.88-.68.69-.38,1.33-.88,1.91-1.5.59-.64,1.08-1.4,1.49-2.3.4-.91.61-1.91.61-3.02,0-1.23-.22-2.37-.67-3.44-.43-1.08-1.1-2.02-1.98-2.82-.88-.81-2.01-1.43-3.34-1.91-1.36-.46-2.95-.71-4.79-.71h-12v34.8h11.37c1.84,0,3.57-.14,5.21-.46,1.62-.32,3.04-.85,4.22-1.62,1.17-.77,2.11-1.76,2.81-2.99.69-1.24,1.04-2.79,1.04-4.67,0-1.56-.26-2.88-.8-3.93-.54-1.07-1.19-1.92-1.97-2.59"/>
  <rect x="255.41" y="303.69" width="5.11" height="34.8"/>
  <path d="M302.46,328.92c-.56.58-1.21,1.07-1.94,1.5-.72.45-1.56.8-2.5,1.06-.93.26-2.04.39-3.31.39-1.56,0-2.95-.27-4.19-.84-1.24-.55-2.3-1.32-3.18-2.3-.9-.97-1.58-2.11-2.05-3.44-.48-1.32-.71-2.75-.71-4.28s.23-2.91.71-4.25c.48-1.33,1.16-2.5,2.05-3.51.88-1.01,1.97-1.79,3.24-2.37,1.27-.58,2.7-.87,4.3-.87,2.01,0,3.75.45,5.21,1.33,1.45.9,2.7,2.07,3.76,3.53l5.48-5.16c-1.63-2.23-3.67-3.93-6.13-5.12-2.47-1.19-5.34-1.76-8.63-1.76-2.73,0-5.21.48-7.46,1.43-2.24.95-4.18,2.26-5.79,3.91-1.61,1.65-2.86,3.6-3.75,5.84-.88,2.24-1.33,4.66-1.33,7.23s.45,5.06,1.33,7.27,2.14,4.12,3.75,5.74,3.53,2.88,5.76,3.77c2.24.91,4.7,1.36,7.39,1.36,1.62,0,3.18-.19,4.7-.58,1.5-.38,2.89-.9,4.19-1.56,1.29-.65,2.46-1.43,3.53-2.31,1.06-.88,1.97-1.84,2.7-2.85l-5.47-4.9c-.54.59-1.08,1.17-1.65,1.75"/>
  <path d="M335.01,324.3c0,1.14-.12,2.18-.35,3.1-.23.93-.61,1.72-1.14,2.39-.52.65-1.23,1.17-2.1,1.53-.87.36-1.91.55-3.15.55s-2.34-.19-3.21-.55-1.58-.88-2.1-1.53c-.54-.67-.91-1.46-1.14-2.39-.23-.91-.35-1.95-.35-3.1v-20.61h-8.07v21.61c0,2.08.35,3.99,1.04,5.73.68,1.75,1.68,3.24,2.96,4.5,1.29,1.24,2.86,2.21,4.7,2.89,1.84.68,3.89,1.01,6.16,1.01s4.31-.35,6.16-1.04c1.84-.69,3.4-1.66,4.7-2.89,1.29-1.24,2.29-2.72,2.96-4.47.69-1.74,1.04-3.64,1.04-5.73v-21.61h-8.13v20.61Z"/>
  <polygon points="349.77 303.7 349.77 338.5 374.73 338.5 374.73 331.5 357.79 331.5 357.79 303.7 349.77 303.7"/>
  <polygon points="368.78 303.7 368.78 310.64 380.25 310.64 380.25 338.5 388.32 338.5 388.32 310.64 399.73 310.64 399.73 303.7 368.78 303.7"/>
  <path d="M425.65,324.3c0,1.14-.12,2.18-.35,3.1-.23.93-.61,1.72-1.14,2.39-.52.65-1.23,1.17-2.1,1.53-.87.36-1.91.55-3.15.55s-2.34-.19-3.21-.55-1.58-.88-2.1-1.53c-.54-.67-.91-1.46-1.14-2.39-.23-.91-.35-1.95-.35-3.1v-20.61h-8.07v21.61c0,2.08.35,3.99,1.04,5.73.68,1.75,1.68,3.24,2.96,4.5,1.29,1.24,2.86,2.21,4.7,2.89,1.84.68,3.89,1.01,6.16,1.01s4.31-.35,6.16-1.04c1.84-.69,3.4-1.66,4.7-2.89,1.29-1.24,2.29-2.72,2.96-4.47.69-1.74,1.04-3.64,1.04-5.73v-21.61h-8.13v20.61Z"/>
  <path d="M456.66,318.09c-.84.87-2.01,1.3-3.5,1.3h-4.93v-9.23h4.93c1.49,0,2.66.42,3.5,1.26.85.82,1.29,1.97,1.29,3.38,0,1.33-.43,2.42-1.29,3.28M464.5,320.52c1.01-1.68,1.5-3.66,1.5-5.92,0-1.5-.25-2.91-.77-4.24-.51-1.32-1.29-2.47-2.33-3.47-1.04-.98-2.34-1.76-3.91-2.34-1.56-.58-3.37-.85-5.42-.85h-13.16v34.8h7.81v-12.79h4.45l6.58,12.79h8.82l-7.87-13.93c1.85-1.01,3.27-2.36,4.28-4.05"/>
  <polygon points="472.64 303.7 472.64 338.5 498.03 338.5 498.03 331.56 480.66 331.56 480.66 324.05 493.25 324.05 493.25 317.37 480.66 317.37 480.66 310.58 496.86 310.58 496.86 303.7 472.64 303.7"/>
  <path d="M21.99,225.52l3.7-5.26c-1.84-1.43-3.88-2.31-6.23-2.82l-2.17,3.25c-1.81-1.39-3.85-2.24-6.13-2.72l-3.56,5.28c1.94.23,4.87,1.62,6.09,2.78l2.31-3.25c1.98.26,4.82,1.62,5.99,2.75"/>
  <path d="M11.55,252.71c-4.02,0-6.19-1.58-6.19-2.59.8-2.04,8.61-6.25,13.52-6.73.03.27.17,4.99.17,6.39,0,2-4.12,2.92-7.51,2.92M142.73,242.31c-5.18,0-7.64-1.06-7.64-3.34,0-2.1,2.98-4.48,6.36-4.48,4.77,0,7.19,4.08,8.08,7.38-2.07.38-5.39.45-6.81.45M142.97,227.76c-6.44,0-9.75,6.9-9.75,13.12s2.59,8.74,8.5,8.74c3.18,0,6.36-.35,8.48-1.53,0,.4.03.81.03,1.26v.17c0,2.27-5.6,3.6-18.44,3.6H32.05c-5.42,0-8.33-1.16-8.55-8.3-.17-5.32-.33-10.91-.33-14.33,0-1.16,0-2.04.06-2.65l-.82.26c-1.32,2.01-2.73,3.64-3.98,5.34-.55.75-.77,2.36-.77,3.34-9.1,2.68-14.56,9.04-14.56,16.95,0,3.85,1.59,7.41,6.31,7.41s8.08-2.75,9.4-7.33c1.35,6.86,5.08,9.34,10.82,9.34h102.49c11.21,0,15.53-3.1,18.02-7.71,1.76-3.27,2.46-7.17,2.46-11.32,0-9.14-3.4-16.34-9.62-16.34"/>
  <path d="M147.12,218.65c-1.87-1.59-4.01-2.62-6.57-3.17l-3.77,5.99c2.04.25,5.19,1.84,6.44,3.12l3.91-5.94Z"/>
  <path d="M185.36,227.76c1.97.27,4.82,1.63,5.99,2.75l3.7-5.26c-1.84-1.43-3.88-2.31-6.23-2.82l-2.17,3.27c-1.81-1.4-3.85-2.24-6.13-2.72l-3.56,5.26c1.94.23,4.87,1.63,6.09,2.78l2.31-3.25Z"/>
  <path d="M215.24,231.43c-1.87-1.43-3.88-2.31-6.33-2.79l-3.63,5.41c1.94.2,4.95,1.66,6.19,2.82l3.77-5.44Z"/>
  <path d="M207.77,244.04l2.21-3.23c1.87.23,4.67,1.56,5.77,2.72l3.57-5.06c-1.74-1.43-3.67-2.29-5.96-2.76l-2.14,3.2c-1.69-1.32-3.63-2.14-5.92-2.65l-3.43,5.13c1.87.2,4.67,1.49,5.89,2.65"/>
  <path d="M185.29,251.93c-3.98-1.53-6.39-3.85-6.39-6.57,0-1.63,2.94-4.48,6.77-4.48,4.85,0,6.93,3.6,6.93,5.94,0,2.08-4.43,4.56-7.3,5.11M254.59,217.06l-1,.23c-1.11,2.76-3.05,6.87-3.75,8.16-.4.82-.51,1.56-.51,2.59,0,1.16,1.35,19.54,1.35,22.19,0,.95-.45,2.89-7.51,2.89h-.13c-5.39,0-8.35-1.16-8.55-8.29-.07-2.62-.13-6.84-.13-11.18,0-7.45.17-15.33.62-16.52l-1.01.43c-1.42,2.75-3.14,5.11-4.15,7-.4.82-.75,1.61-.75,2.59s.23,11.69.23,22.36c0,.27-.38,3.6-7.51,3.6h-.13c-4.15,0-8.75-.85-8.75-4.89,0-.55.1-1.3.25-1.88l-1.11.17c-1.42,4.53-3.63,6.6-10.47,6.6h-1c-3.04,0-5.84,0-8.5-.71,1.42-2.31,2.86-5.71,2.86-9.52s-1.87-9.01-7.78-9.01-9.99,4.86-9.99,13.47c0,1.89.45,3.46,1.32,5.22-1.63.35-3.43.55-5.44.55h-.75c-5.39,0-8.08-1.13-8.43-8.26-.22-4.15-.42-12.19-.42-18.59,0-4.58.1-8.33.42-9.11l-1.04.43c-1.35,2.79-3.05,5.18-3.98,7.07-.42.85-.72,1.61-.72,2.62,0,2.18.1,11.01.58,21.65.52,10.67,4.22,14.2,11.21,14.2h.69c7.06,0,11.09-1.26,13.93-3.15,3.95,2.5,8.72,3.15,13.84,3.15h.8c6.84,0,9.47-3.12,10.85-5.6.9,2.55,3.43,5.6,9.24,5.6h.03c5.7,0,9.23-2.82,10.99-7.38,1.63,5.37,5.19,7.38,10.36,7.38h.01c8.65,0,11.93-7.41,13.35-12.6.74-2.18,1.14-6.22,1.14-11.93s-.65-14.12-.65-18.15c0-1.08.03-2.17.1-3.4"/>
  <path d="M291.1,289.68c1.76.27,4.32,1.49,5.37,2.52l3.36-4.76c-1.66-1.3-3.5-2.11-5.64-2.55l-1.91,2.78c-1.62-1.21-3.38-2-5.47-2.4l-3.21,4.79c1.76.2,4.43,1.46,5.5,2.52l2.01-2.89Z"/>
  <path d="M390.89,274.22c1.97.2,4.95,1.63,6.12,2.79l3.75-5.31c-1.84-1.43-3.88-2.34-6.26-2.82l-3.6,5.34Z"/>
  <path d="M423.09,255.93c-3.11,0-6.86,0-9.34-.3,3.91-4.45,10.31-9.79,17.33-9.79,5.29,0,7.26,4.22,7.26,5.84,0,2.08-4.93,4.25-15.24,4.25M433.88,239.01c-4.25,0-10.17,2.69-15.66,9.34.58-2.07.8-6.07.9-10.57.07-2.82.07-5.84.07-8.69,0-3.75.03-11.18.3-11.93l-1.07.58c-1.42,2.72-2.42,5.24-3.38,7.1-.45.85-.81,1.61-.81,2.59,0,.43.07,4.41.07,9.37,0,6.84-.13,15-.8,16.31-.65,1.29-1.89,2.76-4.53,2.76h-.62c-4.21,0-8.98-.68-8.98-4.53,0-.51.07-1.08.23-1.59l-1.07.1c-1.2,3.93-3.43,6.02-10.27,6.02h-74.3c-3.91,0-11.86-.17-16.81-2.18-.97,1.61-1.66,3.88-1.87,6.09,1.79,1.87,6.88,3.02,10.44,3.5,1.59.2,3.23.71,3.23,1.01,0,1.56-4.05,8.94-17.51,8.94-11.58,0-14.87-4.96-14.87-11.28,0-2.37.45-4.93,1.42-8.74l-1.32.68c-1.07,3.4-1.84,6.6-1.84,10.67,0,8.19,3.67,15.97,15.3,15.97,15.19,0,20.02-11.14,20.91-17.4h75.03c6.99,0,9.75-2.75,11.02-4.85.94,2.4,3.15,4.85,9.02,4.85h14.12c8.2,0,13.15-1.92,16.85-6.32,3.18-3.77,4.58-7.48,4.58-10.2,0-4.08-2.31-7.61-7.81-7.61"/>
  <path d="M431.7,231.02l3.73-5.31c-1.82-1.42-3.88-2.34-6.25-2.82l-3.6,5.34c1.97.22,4.95,1.63,6.12,2.79"/>
  <path d="M458.18,255.9c-4.98,0-7.48-1.19-7.48-3.77,0-2.42,2.98-5.13,6.26-5.13,4.57,0,7.55,5.24,8,8.91h-6.78ZM445.72,274.36c-.65,0-1.2-.07-2.14-.27l.27.98c1.94.98,5.29,4.56,9.24,4.56,4.45,0,12.41-4.51,13.97-16.49h.54c5.74-.03,8.71-2.43,10.51-5.54,1.63-2.81,2.23-6.15,2.23-8.16,0-4.24-.97-6.93-4.3-9.98l-2.46,6.18c3.01,2.62,4.7,6.12,4.7,7.55,0,.61-1.79,2.69-8.5,2.69h-2.62c-.2-7.78-3.08-14.72-8.85-14.72s-9.37,6.47-9.37,12.68,2.11,9.3,8.95,9.3h7.19c0,2.16-7.36,11.22-19.37,11.22"/>
  <path d="M479.51,272.39c-1.84-1.43-3.88-2.34-6.26-2.82l-3.6,5.34c1.98.2,4.96,1.63,6.13,2.79l3.73-5.31Z"/>
  <path d="M491.86,211.55c1.79,0,2.94,1.26,3.08,2.79l.52-.55c.17-.68.3-1.36.3-1.94,0-2.31-1.72-3.8-3.63-3.8-2.76,0-6.02,2.44-6.02,6.8,0,1.79.84,3.67,3.38,4.56-.41.2-1.37.58-1.97.95-.49.3-1.17,1.04-1.56,1.92v.38c3.33-1.53,6.31-1.94,9.89-2.27,0,0,1.46-2.01,1.88-2.82l-.25-.58c-1.35.23-2.49.3-3.67.3-3.83,0-6.57-1.19-6.57-3.05,0-1.43,2.59-2.69,4.6-2.69"/>
  <path d="M489.47,264.5c2.86-5.99,4.3-9.21,4.3-17.67,0-3.15-.32-12.41-.32-18.48,0-2.89.07-4.86.27-5.37l-.87.33c-1.17,2.34-3.01,5.48-3.66,6.6-.42.68-.67,1.36-.67,2.21,0,1.56.49,23.31.49,25.89s-.25,5.71-.77,6.87l1.21-.38Z"/>
  <path d="M357.54,28.79l71.03-.06c6.29.03,11.38-4.93,11.43-11.08.03-6.16-5.02-11.18-11.28-11.22l-71.04.07c-3.1-.03-5.92,1.17-8,3.17-2.05,1.98-3.4,4.8-3.44,7.9-.03,6.16,5.02,11.18,11.31,11.22"/>
  <path d="M235.59,29.74c5.38-5.41,5.32-14.09-.17-19.4-5.51-5.29-14.36-5.22-19.79.19-5.38,5.42-5.28,14.1.2,19.4,5.52,5.31,14.33,5.24,19.76-.19"/>
  <path d="M252.59,133.87c-.09.07-.19.17-.26.25-7.19,6.99-16.72,10.82-26.81,10.76,0,.01-.01,0-.01,0l-37.78-.19.19-37.14c.1-20.49,17.14-37.05,38.01-36.97,20.86.09,37.71,16.86,37.62,37.34-.04,9.79-3.93,18.99-10.95,25.95M98.68,112.72c-.1,20.6-17.23,37.23-38.2,37.14-20.97-.09-37.89-16.95-37.82-37.52.04-9.85,3.96-19.09,11.01-26.08.09-.09.19-.19.26-.26,7.23-7.01,16.81-10.86,26.94-10.82.01-.01.03,0,.03,0l37.97.19-.19,37.34ZM226,48.39c-33.29-.17-60.53,26.32-60.7,59.05l-.17,37.14-10.3-.14-.06-4.54c.01-.12.04-.22.04-.33l-.07-74.95c.01-2.95-1.16-5.8-3.27-7.91-2.14-2.11-5-3.31-8.04-3.33l-28.45-.22L70.13,9.72v.03c-2.1-1.91-4.87-3.08-7.94-3.05-6.31.06-11.37,5.15-11.31,11.32.03,3.95,2.13,7.39,5.26,9.36l26.42,25.61s-24.51-.07-24.99-.03c-14.94.72-28.9,6.75-39.61,17.18-.14.14-.27.3-.42.43C6.29,81.74.06,96.5,0,112.23c-.22,32.89,26.9,59.79,60.4,59.94,33.45.17,60.83-26.45,61.01-59.34l.17-37.33,10.37.14.16,63.74v.09l.04,15.92c-.01,2.95,1.14,5.77,3.25,7.88,2.13,2.1,4.98,3.3,8,3.3l28.29.23,32.25.17s24.38.07,24.85.01c14.88-.71,28.77-6.71,39.43-17.08.14-.16.27-.3.42-.45,11.19-11.09,17.38-25.79,17.46-41.42.2-32.74-26.77-59.5-60.09-59.65"/>
  <path d="M486.65,4.09c-2.1-2.59-5.29-4.09-8.66-4.09s-6.55,1.5-8.65,4.09l-10.93,13.49c-3.82,4.69-3.02,11.53,1.75,15.27,4.79,3.75,11.74,2.96,15.55-1.72l2.29-2.83,2.3,2.83c2.18,2.69,5.41,4.09,8.65,4.09,2.43,0,4.86-.78,6.9-2.37,4.77-3.75,5.57-10.59,1.75-15.27l-10.93-13.49Z"/>
  <path d="M351.31,107.54c.1-20.49,17.14-37.05,38.01-36.97,20.86.09,37.71,16.86,37.62,37.34-.04,9.79-3.93,18.99-10.95,25.95-.09.07-.19.19-.26.26-6.18,5.99-14.09,9.63-22.58,10.53l-19.34.03-.04.12-22.65-.12.19-37.14ZM295.51,139.38s.01.06.01.09l.03,15.92c-.01,2.95,1.14,5.79,3.25,7.88,2.13,2.1,4.98,3.3,8,3.3l28.29.23,32.12.17v.04s8.85-.03,8.85-.03c7.04.03,15.85.03,16.13,0,.13,0,.25-.01.36-.03l88.21-.17c3.04-.01,5.9-1.21,8.04-3.31,2.11-2.13,3.28-4.98,3.27-7.93l.07-91.61c-.07-6.15-5.18-11.09-11.45-11.05-6.28.06-11.3,5.08-11.25,11.24l-.16,80.41-32.86.04c8.4-10.37,13.02-23.1,13.07-36.55.2-32.74-26.77-59.49-60.09-59.65-33.28-.16-60.53,26.32-60.7,59.05l-.17,37.14-10.3-.14-.04-4.54c0-.1.03-.22.03-.33l-.07-74.93c.01-.25-.04-.48-.06-.71l-.06-46.25c.04-3.04-1.2-5.8-3.23-7.85-2.01-2.02-4.89-3.34-8.04-3.38-6.26-.03-11.37,4.92-11.41,11.11l.04,58-.04.1.16,63.74Z"/>
</svg>