<?xml version="1.0" encoding="UTF-8"?>
<svg id="Layer_1" data-name="Layer 1" xmlns="http://www.w3.org/2000/svg" viewBox="0 0 500 185">
  <defs>
    <style>
      .cls-1 {
        fill: #eb5c0a;
      }

      .cls-2 {
        fill: #824091;
      }

      .cls-3 {
        fill: #38a8e0;
      }

      .cls-4 {
        fill: #e5005c;
      }

      .cls-5 {
        fill: #7587c2;
      }

      .cls-6 {
        fill: #69b530;
      }

      .cls-7 {
        fill: #38b5ab;
      }
    </style>
  </defs>
  <rect class="cls-4" x="38.69" y="43.89" width="13.39" height="24.42"/>
  <polygon class="cls-4" points="150.16 126.59 138.72 126.59 150.16 137.27 150.16 126.59"/>
  <polygon class="cls-4" points="150.16 140.04 138.29 151.11 150.16 151.11 150.16 140.04"/>
  <path class="cls-7" d="M115.59,16.63c0-.06,0-4.74,0-11.22-7.5-2.15-15.39-3.35-23.55-3.48v39.02c12.94-.73,23.25-11.27,23.55-24.32"/>
  <path class="cls-3" d="M65.8,178.73v.92c7.47,2.12,15.34,3.3,23.47,3.42v-29.19c-13.19.66-23.47,11.49-23.47,24.85"/>
  <path class="cls-3" d="M92.04,153.88v29.19c8.17-.13,16.08-1.34,23.59-3.49v-.85c0-13.36-10.4-24.19-23.59-24.85"/>
  <polygon class="cls-3" points="78.71 43.89 65.6 43.89 72.04 55.98 78.71 43.89"/>
  <path class="cls-3" d="M126.06,67.26v-23.37c-6.23.27-11.2,5.39-11.2,11.68s4.97,11.41,11.2,11.68"/>
  <path class="cls-3" d="M118.31,178.76c3.61-1.16,7.12-2.54,10.51-4.12v-48.04h-10.51v52.16Z"/>
  <path class="cls-3" d="M145.34,68.25h32.55c-2.41-8.71-6.1-16.9-10.84-24.34h-21.71v24.34Z"/>
  <rect class="cls-3" x="128.82" y="43.89" width="13.76" height="24.36"/>
  <path class="cls-3" d="M52.08,10.49c-14.57,6.85-27.01,17.47-36.08,30.6h36.08V10.49Z"/>
  <rect class="cls-7" x="30.52" y="71.08" width="21.56" height="35.4"/>
  <path class="cls-3" d="M103.35,55.41c0-5.98-4.95-10.88-11.31-11.52v23.04c6.36-.64,11.31-5.54,11.31-11.52"/>
  <rect class="cls-3" x="30.46" y="109.19" width="58.81" height="14.76"/>
  <path class="cls-3" d="M115.51,28.18h0c-1.3,2.69-3.03,5.18-5.17,7.37-2.25,2.3-4.85,4.16-7.68,5.54h12.85v-12.91Z"/>
  <path class="cls-3" d="M27.87,123.95v-13.53c-1.33,2.78-3.13,5.35-5.34,7.61-2.45,2.5-5.29,4.49-8.38,5.92h13.73Z"/>
  <path class="cls-3" d="M178.63,71.11c-14.02.68-25.19,12.22-25.19,26.4,0,13.18,9.64,24.08,22.24,26.1,3.55-9.7,5.49-20.19,5.49-31.12,0-7.37-.89-14.53-2.55-21.39"/>
  <rect class="cls-3" x="129.23" y="71.08" width="21.56" height="35.4"/>
  <path class="cls-3" d="M158.78,118.04c-2.22-2.26-4.01-4.83-5.34-7.61v13.53h13.73c-3.09-1.43-5.93-3.42-8.38-5.92"/>
  <path class="cls-3" d="M115.6,166.57v-12.7h-12.68c5.52,2.7,9.99,7.19,12.68,12.7"/>
  <polygon class="cls-6" points="30.54 137.27 41.98 126.6 30.54 126.6 30.54 137.27"/>
  <path class="cls-6" d="M49.28,151.11v-24.38c-6.2.28-11.15,5.62-11.15,12.19s4.95,11.91,11.15,12.19"/>
  <polygon class="cls-6" points="30.54 151.11 42.41 151.11 30.54 140.04 30.54 151.11"/>
  <path class="cls-6" d="M65.6,16.7c.33,13.05,10.69,23.59,23.67,24.26V1.93c-8.2.12-16.14,1.32-23.67,3.47,0,6.51,0,11.23,0,11.29"/>
  <path class="cls-6" d="M65.9,55.52c0-6.27-4.95-11.37-11.16-11.64v23.27c6.2-.27,11.16-5.37,11.16-11.64"/>
  <path class="cls-6" d="M52.08,174.51c3.49,1.64,7.1,3.07,10.81,4.26v-52.17h-10.81v47.92Z"/>
  <path class="cls-6" d="M62.8,6.26c-2.72.88-5.38,1.87-7.98,2.99v31.83h7.98V6.26Z"/>
  <path class="cls-6" d="M78.04,55.27c0,5.92,4.92,10.77,11.23,11.38v-22.76c-6.31.61-11.23,5.46-11.23,11.38"/>
  <rect class="cls-6" x="92.04" y="126.72" width="23.56" height="24.38"/>
  <rect class="cls-6" x="65.66" y="126.72" width="23.6" height="24.38"/>
  <path class="cls-6" d="M27.95,126.72H6.7c3.65,8.93,8.68,17.14,14.82,24.38h6.43v-24.38Z"/>
  <polygon class="cls-6" points="109.01 55.98 115.51 43.89 102.35 43.89 109.01 55.98"/>
  <path class="cls-6" d="M27.87,84.61v-13.53h-13.73c3.09,1.43,5.93,3.42,8.38,5.92,2.22,2.26,4.01,4.83,5.34,7.61"/>
  <rect class="cls-6" x="92.04" y="109.19" width="58.81" height="14.76"/>
  <path class="cls-6" d="M158.78,77c2.45-2.5,5.29-4.49,8.38-5.92h-13.73v13.53c1.33-2.78,3.13-5.35,5.34-7.61"/>
  <path class="cls-6" d="M65.8,153.88v12.7c2.69-5.51,7.16-10,12.69-12.7h-12.69Z"/>
  <path class="cls-4" d="M35.86,43.89H14.14c-4.76,7.47-8.45,15.68-10.87,24.42h32.58v-24.42Z"/>
  <rect class="cls-4" x="38.69" y="43.89" width="13.39" height="24.42"/>
  <polygon class="cls-4" points="150.16 126.59 138.72 126.59 150.16 137.27 150.16 126.59"/>
  <path class="cls-4" d="M131.41,126.72v24.38c6.2-.28,11.15-5.62,11.15-12.19s-4.95-11.91-11.15-12.19"/>
  <polygon class="cls-4" points="150.16 140.04 138.29 151.11 150.16 151.11 150.16 140.04"/>
  <path class="cls-4" d="M153.02,151.11h6.63c6.15-7.24,11.18-15.45,14.82-24.38h-21.45v24.38Z"/>
  <path class="cls-4" d="M70.72,35.54c-2.14-2.18-3.87-4.67-5.17-7.37v12.91h12.84c-2.83-1.38-5.43-3.24-7.68-5.54"/>
  <path d="M218.08,134.33c-8.61,0-13.83-5.49-13.83-14.32s5.41-14.25,14.02-14.25c6.44,0,11.08,3.89,12.49,9.45l-6.13,1.33c-.72-3.77-3.5-5.41-6.59-5.41-3.89,0-6.9,3.24-6.9,8.87s3.01,8.95,6.97,8.95c2.82,0,5.87-1.22,6.71-5.41l6.13,1.33c-1.49,5.68-6.4,9.45-12.88,9.45"/>
  <path d="M240.89,134.33c-5.45,0-7.08-3.09-7.08-8.65v-11.96h6.29v10.4c0,2.93.08,5.33,3.12,5.33,2.67,0,3.69-1.52,3.69-5.29v-10.44h6.29v20.11h-6.29v-2.86c-1.26,2.02-2.85,3.35-6.02,3.35"/>
  <rect x="257.73" y="106.22" width="6.29" height="27.61"/>
  <path d="M280.32,129.19l.27,4.57c-1.22.15-2.28.23-3.28.23-6.21,0-7.81-2.32-7.81-7.12v-8.69h-3.24v-4.46h3.24v-5.6h6.28v5.6h4.5v4.46h-4.5v8.57c0,1.29.04,2.63,2.59,2.63.53,0,1.18-.08,1.94-.19"/>
  <path d="M290.26,134.33c-5.45,0-7.08-3.09-7.08-8.65v-11.96h6.29v10.4c0,2.93.08,5.33,3.12,5.33,2.67,0,3.69-1.52,3.69-5.29v-10.44h6.29v20.11h-6.29v-2.86c-1.26,2.02-2.85,3.35-6.02,3.35"/>
  <path d="M317.99,119.63c-3.01,0-4.61,1.1-4.61,4.3v9.9h-6.29v-20.11h6.06v3.89c.95-2.4,2.67-3.92,5.6-4.04.3,0,.65,0,.95.04v6.13c-.69-.08-1.14-.12-1.71-.12"/>
  <path d="M342.68,125.19h-15.2c.11,2.89,2.44,4.27,4.84,4.27s3.81-.8,4.68-2.21l5.29,1.22c-1.87,4-5.94,5.86-9.9,5.86-6.59,0-11.24-4-11.24-10.66s5.07-10.55,10.97-10.55c6.71,0,10.89,4.91,10.55,12.08M336.43,121.57c-.15-2.44-1.94-3.66-4.31-3.66-2.21,0-4.23,1.07-4.57,3.66h8.88Z"/>
  <path d="M360.31,113.65c0,1.37,1.3,2.36,3.2,2.78l3.77.76c4.46.91,10.09,2.29,10.09,8.08s-5.83,9.06-11.58,9.06c-6.63,0-11.16-3.12-12.49-8.42l6.17-1.3c.76,3.12,3.09,4.46,6.47,4.46,2.21,0,4.72-.73,4.72-3.01,0-1.79-2.13-2.67-5.14-3.31l-3.35-.69c-4.5-.95-8.57-3.08-8.57-8.04,0-5.64,6.06-8.26,11.46-8.26,4.99,0,9.83,2.13,11.27,7.43l-6.17,1.3c-.65-2.21-2.7-3.5-5.49-3.5-2.51,0-4.38.95-4.38,2.67"/>
  <path d="M387.05,134.33c-5.45,0-7.08-3.09-7.08-8.65v-11.96h6.29v10.4c0,2.93.08,5.33,3.12,5.33,2.67,0,3.69-1.52,3.69-5.29v-10.44h6.29v20.11h-6.29v-2.86c-1.26,2.02-2.85,3.35-6.02,3.35"/>
  <path d="M403.89,133.83v-20.11h6.29v2.7c.91-1.52,3.12-3.16,6.21-3.16,3.28,0,5.14,1.22,6.09,3.47,1.56-2.29,4.11-3.47,7.01-3.47,5.25,0,6.89,3.09,6.89,8.65v11.92h-6.29v-10.36c0-2.93-.15-5.33-3.16-5.33-2.55,0-3.66,1.79-3.66,5.41v10.28h-6.29v-10.36c0-2.93-.15-5.33-3.16-5.33-2.55,0-3.66,1.79-3.66,5.41v10.28h-6.29Z"/>
  <path d="M440.5,133.83v-20.11h6.29v2.7c.91-1.52,3.12-3.16,6.21-3.16,3.28,0,5.14,1.22,6.09,3.47,1.56-2.29,4.11-3.47,7.01-3.47,5.25,0,6.89,3.09,6.89,8.65v11.92h-6.29v-10.36c0-2.93-.15-5.33-3.16-5.33-2.55,0-3.65,1.79-3.65,5.41v10.28h-6.29v-10.36c0-2.93-.15-5.33-3.16-5.33-2.55,0-3.66,1.79-3.66,5.41v10.28h-6.29Z"/>
  <path d="M483.39,111.25h-6.29v-5.03h6.29v5.03ZM483.43,133.83h-6.32v-20.11h6.32v20.11Z"/>
  <path d="M499.73,129.19l.27,4.57c-1.22.15-2.28.23-3.28.23-6.21,0-7.81-2.32-7.81-7.12v-8.69h-3.24v-4.46h3.24v-5.6h6.28v5.6h4.5v4.46h-4.5v8.57c0,1.29.04,2.63,2.59,2.63.53,0,1.18-.08,1.94-.19"/>
  <path d="M218.34,147.87l10.4,27.61h-4.19l-2.17-5.98h-12.69l-2.13,5.98h-3.96l10.25-27.61h4.5ZM221.16,166.19l-5.18-14.4-5.1,14.4h10.28Z"/>
  <path d="M231.1,147.87h3.47v10.89c1.26-2.17,3.43-3.58,6.7-3.58,4.84,0,8.65,3.85,8.65,10.4s-3.81,10.4-8.65,10.4c-3.28,0-5.45-1.41-6.7-3.58v3.09h-3.47v-27.61ZM240.4,158.15c-3.09,0-5.98,2.21-5.98,7.43s2.89,7.43,5.98,7.43c3.69,0,5.75-2.74,5.75-7.43s-2.06-7.43-5.75-7.43"/>
  <path d="M259.86,175.98c-4.76,0-6.55-3.2-6.55-7.89v-12.57h3.46v11.54c0,3.16.53,5.9,4.31,5.9,3.28,0,5.22-2.32,5.22-6.7v-10.74h3.46v19.96h-3.46v-2.93c-1.18,1.94-3.05,3.43-6.44,3.43"/>
  <path d="M307.52,161.65c0,10.55-6.29,13.83-15.05,13.83h-7.54v-27.61h7.54c8.76,0,15.05,3.28,15.05,13.79M288.81,151.14v21.06h3.54c5.71,0,11.2-1.14,11.2-10.55s-5.49-10.51-11.2-10.51h-3.54Z"/>
  <path d="M322.68,155.18c4.95,0,6.74,3.2,6.74,7.88v12.42h-3.47v-11.39c0-3.16-.53-5.9-4.5-5.9-3.35,0-5.41,2.32-5.41,6.7v10.59h-3.47v-27.61h3.47v10.74c1.18-1.94,3.16-3.43,6.63-3.43"/>
  <path d="M347.74,172.47c-1.26,2.13-3.39,3.5-7.01,3.5-4.08,0-7.05-2.44-7.05-6.02,0-4.27,4.19-5.64,9.71-6.44.8-.12,1.49-.23,2.36-.38,1.18-.23,1.83-.69,1.83-2.02,0-1.98-1.9-3.2-4.68-3.2-3.2,0-4.8,1.56-4.95,4.08l-3.54-.23c.42-4.27,4.19-6.67,8.53-6.67,5.52,0,8.11,2.13,8.08,8l-.04,4.65c-.04,3.43.15,5.79.53,7.73h-3.5c-.12-.76-.23-1.79-.27-3.01M347.82,166.3v-.91c-1.26.34-2.78.57-3.96.8-4.3.76-6.32,1.52-6.32,3.77,0,1.94,1.49,3.28,3.96,3.28,3.24,0,6.32-1.49,6.32-6.93"/>
  <path d="M356.66,147.87h3.47v10.89c1.26-2.17,3.43-3.58,6.7-3.58,4.84,0,8.65,3.85,8.65,10.4s-3.81,10.4-8.65,10.4c-3.28,0-5.45-1.41-6.7-3.58v3.09h-3.47v-27.61ZM365.95,158.15c-3.09,0-5.98,2.21-5.98,7.43s2.89,7.43,5.98,7.43c3.69,0,5.75-2.74,5.75-7.43s-2.06-7.43-5.75-7.43"/>
  <path d="M383.4,152.06h-3.47v-4.19h3.47v4.19ZM383.4,175.48h-3.47v-19.96h3.47v19.96Z"/>
  <path d="M225.18,35.06v5.38c0,.24-.16.44-.4.44-2.61,0-4.55-.63-5.89-1.86-2.22,1.23-3.96,1.86-5.9,1.86-5.42,0-8.63-2.97-8.63-8.03s3.92-9.77,12.23-11.24v-2.02h5.89v12.7c0,1.58.67,2.38,2.29,2.38.24,0,.4.16.4.4M213.11,34.9c1.19,0,2.37-.2,3.56-.67-.04-.51-.08-1.03-.08-1.58v-6.17c-4.27.95-6.61,3.09-6.61,5.7,0,1.62,1.15,2.73,3.13,2.73M215.56,16.98l-4.04-3.96,3.96-4,3.05,2.97,3.01-2.97,4.04,4-3.96,3.96-3.05-2.93-3.01,2.93Z"/>
  <path d="M240.25,35.06v5.38c0,.24-.16.44-.4.44-2.45,0-4.87-1.19-6.88-3.28-1.62,2.14-4.23,3.28-8.19,3.28-.24,0-.4-.2-.4-.44v-5.38c0-.24.16-.4.4-.4,2.06,0,3.36-.51,4.12-1.58.95-1.31,1.07-3.56,1.07-6.85h5.42c0,2.57-.12,4.91-.55,6.92,1.46.95,3.36,1.5,5.02,1.5.24,0,.4.16.4.4M234.59,43.01l4.04,4-3.96,4-2.85-2.77-2.77,2.77-4.08-4,4-4,2.85,2.77,2.77-2.77Z"/>
  <path d="M259.68,30.07c0,6.49-4.27,10.8-10.92,10.8h-8.9c-.28,0-.4-.16-.4-.44v-5.38c0-.24.16-.39.4-.39h3.2s-.04-.04-.04-.08c-1.26-1.74-1.9-3.4-1.9-5.14,0-4.98,3.92-8.82,9.14-8.82s9.42,4.04,9.42,9.46M250.26,18.68l-4.04-4,4-4,4.04,4-4,4ZM253.74,30.19c0-2.14-1.54-3.8-3.6-3.8-2.22,0-3.64,1.7-3.64,3.84,0,1.07.4,2.06,1.39,3.52.2.32.43.6.59.91h.32c3.09,0,4.95-1.7,4.95-4.47"/>
  <path d="M269.88,31.1c0,2.45.87,3.56,3.32,3.56.24,0,.4.16.4.4l.04,5.38c0,.24-.16.44-.4.44-6.13,0-9.26-2.97-9.26-8.11l-.04-20.58h5.9l.04,18.91Z"/>
  <path d="M281.32,35.06v5.38c0,.24-.16.44-.4.44h-7.68c-.24,0-.4-.2-.4-.44v-5.38c0-.24.16-.4.4-.4h7.68c.24,0,.4.16.4.4"/>
  <path d="M288.99,35.06v5.38c0,.24-.16.44-.4.44h-7.68c-.24,0-.4-.2-.4-.44v-5.38c0-.24.16-.4.4-.4h7.68c.24,0,.4.16.4.4"/>
  <path d="M296.67,35.06v5.38c0,.24-.16.44-.4.44h-7.68c-.24,0-.4-.2-.4-.44v-5.38c0-.24.16-.4.4-.4h7.68c.24,0,.4.16.4.4"/>
  <path d="M304.34,35.06v5.38c0,.24-.16.44-.4.44h-7.68c-.24,0-.4-.2-.4-.44v-5.38c0-.24.16-.4.4-.4h7.68c.24,0,.4.16.4.4"/>
  <path d="M312.02,35.06v5.38c0,.24-.16.44-.4.44h-7.68c-.24,0-.4-.2-.4-.44v-5.38c0-.24.16-.4.4-.4h7.68c.24,0,.4.16.4.4"/>
  <path d="M333.26,35.06v5.38c0,.24-.16.44-.4.44-2.97,0-6.69-.71-10.13-1.82-3.09,1.19-7.16,1.82-11.12,1.82-.24-.04-.4-.2-.4-.44v-5.38c0-.24.16-.39.4-.39,1.27,0,2.45-.04,3.48-.16-1.15-1.46-1.82-3.2-1.82-5.14,0-4.75,3.56-8.74,8.9-8.74s9.02,3.92,9.02,8.78c0,1.82-.75,3.52-1.94,5.03,1.03.16,2.18.24,3.6.24.24,0,.4.16.4.39M319.06,18.72l-4.04-3.96,3.96-4,3.05,2.97,3.01-2.97,4.04,4-3.96,3.96-3.05-2.93-3.01,2.93ZM318.47,30.07c0,1.86,1.15,3.56,3.44,4.39,2.41-.83,3.52-2.49,3.52-4.35,0-2.18-1.58-3.68-3.52-3.68-2.06,0-3.44,1.58-3.44,3.64"/>
  <path d="M348.34,35.06v5.38c0,.24-.16.44-.4.44-2.45,0-4.87-1.19-6.89-3.28-1.62,2.14-4.23,3.28-8.19,3.28-.24,0-.4-.2-.4-.44v-5.38c0-.24.16-.4.4-.4,2.06,0,3.36-.51,4.12-1.58.95-1.31,1.07-3.56,1.07-6.85h5.42c0,2.57-.12,4.91-.56,6.93,1.47.95,3.36,1.5,5.03,1.5.24,0,.4.16.4.4M337.38,23.31l-4-4,3.96-4.04,3.13,3.13,3.13-3.13,4,4.04-3.96,4-3.13-3.09-3.13,3.09ZM340.5,16.54l-2.77-2.77,2.73-2.77,2.81,2.77-2.77,2.77Z"/>
  <path d="M357.24,12.19l-.04,20.57c0,5.14-3.13,8.11-9.26,8.11-.24,0-.39-.2-.39-.44l.04-5.38c0-.24.16-.4.4-.4,2.45,0,3.32-1.11,3.32-3.56l.04-18.91h5.9Z"/>
  <rect x="363.29" y="12.19" width="5.9" height="28.69"/>
  <path d="M402.82,35.06v5.38c0,.24-.16.44-.39.44-2.61,0-4.55-.63-5.9-1.86-2.22,1.23-3.96,1.86-5.9,1.86-5.42,0-8.63-2.97-8.63-8.03s3.92-9.77,12.23-11.24v-2.02h5.89v12.7c0,1.58.67,2.38,2.3,2.38.24,0,.39.16.39.4M390.75,34.9c1.19,0,2.37-.2,3.56-.67-.04-.51-.08-1.03-.08-1.58v-6.17c-4.27.95-6.61,3.09-6.61,5.7,0,1.62,1.15,2.73,3.13,2.73M393.2,16.98l-4.04-3.96,3.96-4,3.05,2.97,3.01-2.97,4.04,4-3.96,3.96-3.05-2.93-3.01,2.93Z"/>
  <path d="M410.49,35.06v5.38c0,.24-.16.44-.4.44h-7.68c-.24,0-.4-.2-.4-.44v-5.38c0-.24.16-.4.4-.4h7.68c.24,0,.4.16.4.4"/>
  <path d="M418.17,35.06v5.38c0,.24-.16.44-.4.44h-7.68c-.24,0-.4-.2-.4-.44v-5.38c0-.24.16-.4.4-.4h7.68c.24,0,.4.16.4.4"/>
  <path d="M425.84,35.06v5.38c0,.24-.16.44-.4.44h-7.68c-.24,0-.4-.2-.4-.44v-5.38c0-.24.16-.4.4-.4h7.68c.24,0,.4.16.4.4"/>
  <path d="M433.52,35.06v5.38c0,.24-.16.44-.4.44h-7.68c-.24,0-.4-.2-.4-.44v-5.38c0-.24.16-.4.4-.4h7.68c.24,0,.4.16.4.4"/>
  <path d="M455.88,35.06v5.38c0,.24-.16.44-.4.44-2.93,0-4.79-1.31-6.05-3.16l-.75,3.16c-4.32,0-7.99-.67-10.41-2.14-1.43,1.23-3.13,2.14-5.15,2.14-.24,0-.39-.2-.39-.44v-5.38c0-.24.16-.39.39-.39.75,0,1.47-.08,2.14-.24-.04-.16-.04-.32-.04-.47,0-4.27,3.21-12.23,9.42-12.23,3.36,0,5.42,1.98,6.73,5.89l1.03,3.17c.79,2.65,1.54,3.88,3.09,3.88.24,0,.4.16.4.39M448.08,34.9c-.12-.32-.24-.63-.32-.95l-.95-2.97c-.71-2.41-1.54-3.48-2.73-3.48-1.46,0-3.17,1.86-4.2,5.38,1.9,1.07,4.35,1.82,8.19,2.02"/>
  <path d="M477.12,35.06v5.38c0,.24-.16.44-.4.44-2.97,0-6.69-.71-10.13-1.82-3.09,1.19-7.16,1.82-11.12,1.82-.24-.04-.4-.2-.4-.44v-5.38c0-.24.16-.39.4-.39,1.27,0,2.45-.04,3.48-.16-1.15-1.46-1.82-3.2-1.82-5.14,0-4.75,3.56-8.74,8.9-8.74s9.02,3.92,9.02,8.78c0,1.82-.75,3.52-1.94,5.03,1.03.16,2.18.24,3.6.24.24,0,.4.16.4.39M462.92,18.72l-4.04-3.96,3.96-4,3.05,2.97,3.01-2.97,4.04,4-3.96,3.96-3.05-2.93-3.01,2.93ZM462.32,30.07c0,1.86,1.15,3.56,3.44,4.39,2.41-.83,3.52-2.49,3.52-4.35,0-2.18-1.58-3.68-3.52-3.68-2.06,0-3.44,1.58-3.44,3.64"/>
  <path d="M486.02,12.19l-.04,20.57c0,5.14-3.13,8.11-9.26,8.11-.24,0-.39-.2-.39-.44l.04-5.38c0-.24.16-.4.4-.4,2.45,0,3.32-1.11,3.32-3.56l.04-18.91h5.9Z"/>
  <rect x="492.08" y="12.19" width="5.89" height="28.69"/>
  <path d="M239.58,78.77v2.73c0,.24-.16.44-.4.44-5.62,0-9.26-3.05-9.26-8.7,0-1.82.24-4,.79-6.85-6.89.44-11,3.09-11,5.62,0,1.35.67,2.02,3.16,3.68l1.74,1.15c2.93,1.9,4.08,3.76,4.08,6.01,0,4.47-4.27,7.6-11.52,7.6s-12.19-3.32-12.19-10.76c0-2.57.55-5.42,1.78-9.02l2.85.75c-.95,2.61-1.47,5.3-1.47,7.68,0,5.22,3.21,7.83,10.33,7.83,4.31,0,7.05-1.58,7.05-3.68,0-1.07-.99-2.02-3.05-3.44l-1.82-1.23c-2.93-2.02-4.15-3.64-4.15-6.21,0-4.59,4.51-8.59,14.76-9.62l2.81,1.98c-.67,3.13-1.15,6.13-1.15,8.07,0,3.6,2.41,5.58,6.25,5.58.24,0,.4.16.4.39M222.52,92.78l3.01,2.97-3.01,3-2.97-2.93-2.97,2.93-3.01-3,2.97-2.97,3,2.89,2.97-2.89ZM233.6,85.02l3.05,2.97-2.97,3.01-3.05-3.01,2.97-2.97Z"/>
  <path d="M247.25,78.77v2.73c0,.24-.16.44-.4.44h-7.68c-.24,0-.4-.2-.4-.44v-2.73c0-.24.16-.4.4-.4h7.68c.24,0,.4.16.4.4"/>
  <path d="M254.92,78.77v2.73c0,.24-.16.44-.4.44h-7.68c-.24,0-.4-.2-.4-.44v-2.73c0-.24.16-.4.4-.4h7.68c.24,0,.4.16.4.4"/>
  <path d="M262.6,78.77v2.73c0,.24-.16.44-.4.44h-7.68c-.24,0-.4-.2-.4-.44v-2.73c0-.24.16-.4.4-.4h7.68c.24,0,.4.16.4.4"/>
  <path d="M270.28,78.77v2.73c0,.24-.16.44-.4.44h-7.68c-.24,0-.4-.2-.4-.44v-2.73c0-.24.16-.4.4-.4h7.68c.24,0,.4.16.4.4"/>
  <path d="M277.95,78.77v2.73c0,.24-.16.44-.4.44h-7.68c-.24,0-.4-.2-.4-.44v-2.73c0-.24.16-.4.4-.4h7.68c.24,0,.4.16.4.4"/>
  <path d="M285.63,78.77v2.73c0,.24-.16.44-.4.44h-7.68c-.24,0-.4-.2-.4-.44v-2.73c0-.24.16-.4.4-.4h7.68c.24,0,.4.16.4.4"/>
  <path d="M293.3,78.77v2.73c0,.24-.16.44-.4.44h-7.68c-.24,0-.4-.2-.4-.44v-2.73c0-.24.16-.4.4-.4h7.68c.24,0,.4.16.4.4"/>
  <path d="M300.98,78.77v2.73c0,.24-.16.44-.4.44h-7.68c-.24,0-.4-.2-.4-.44v-2.73c0-.24.16-.4.4-.4h7.68c.24,0,.4.16.4.4"/>
  <path d="M308.65,78.77v2.73c0,.24-.16.44-.4.44h-7.68c-.24,0-.4-.2-.4-.44v-2.73c0-.24.16-.4.4-.4h7.68c.24,0,.4.16.4.4"/>
  <path d="M316.33,78.77v2.73c0,.24-.16.44-.4.44h-7.68c-.24,0-.4-.2-.4-.44v-2.73c0-.24.16-.4.4-.4h7.68c.24,0,.4.16.4.4"/>
  <path d="M345.49,69.86c0,7.12-6.33,12.07-15.91,12.07h-13.65c-.24,0-.4-.2-.4-.44v-2.73c0-.24.16-.4.4-.4h1.82c.91-1.19,1.82-2.29,2.65-3.32v-21.8h3.36v11.28c0,2.1-.4,4.79-.83,7.48,7.2-8.51,10.49-10.56,14.32-10.56,4.71,0,8.23,3.6,8.23,8.43M342.08,70.42c0-3.09-2.29-5.42-5.3-5.42-3.76,0-7.24,3.76-15.51,13.37h7.83c7.8,0,12.98-3.29,12.98-7.95M330.29,59.89l-3.05-2.97,2.97-3.01,3.05,3.01-2.97,2.97Z"/>
  <path d="M368.67,78.77v2.73c0,.24-.16.44-.4.44h-2.45c-.56,5.26-5.03,8.51-13.81,8.51v-3.25c6.29,0,9.85-1.98,10.56-5.26h-3.24c-6.37,0-10.29-3.36-10.29-9.18,0-5.5,3.52-9.61,8.7-9.61,4.51,0,7.52,3.2,7.83,8.51.08,1.7.2,4.12.28,6.73h2.41c.24,0,.4.16.4.4M359.57,78.37h3.09c-.12-2.25-.32-4.55-.44-6.33-.24-3.48-1.94-5.34-4.67-5.34-3.09,0-5.14,2.53-5.14,5.89,0,3.76,2.53,5.78,7.16,5.78"/>
  <path d="M376.35,74.38c0,4.63-2.65,7.56-8.07,7.56-.24,0-.4-.2-.4-.44v-2.73c0-.24.16-.4.4-.4,3.44,0,4.83-1.35,4.83-4.12,0-2.33-.36-5.07-1.31-11.51h3.36c.87,5.82,1.19,8.98,1.19,11.63M375.2,87.99l-2.97,3.01-3.05-3.01,2.97-2.97,3.05,2.97Z"/>
  <path d="M388.65,53.64l-.71,2.38h-6.41c-.91,0-1.62.08-2.97.47v-2.29c1.27-.44,1.82-.56,2.81-.56-.63-.63-.95-1.42-.95-2.25,0-2.06,1.62-3.56,3.72-3.56,1.11,0,2.06.36,3.01.79v2.29c-1.19-.47-1.82-.59-2.49-.59-1.15,0-1.98.67-1.98,1.7,0,.91.83,1.62,1.86,1.62h4.11ZM382.08,58.19h3.36v23.74h-3.36v-23.74Z"/>
  <polygon class="cls-2" points="54.82 75.71 89.27 75.71 72.04 57.65 54.82 75.71"/>
  <path class="cls-2" d="M27.87,97.52c0-14.23-11.24-25.8-25.32-26.41-1.66,6.86-2.55,14.02-2.55,21.4,0,10.94,1.94,21.43,5.49,31.14,12.67-1.97,22.37-12.9,22.37-26.12"/>
  <path class="cls-2" d="M49.38,173.19v-19.31h-25.41c7.23,7.84,15.82,14.41,25.41,19.31"/>
  <rect class="cls-2" x="54.82" y="93.91" width="19.23" height="12.58"/>
  <rect class="cls-2" x="54.82" y="78.48" width="19.23" height="12.66"/>
  <path class="cls-2" d="M118.2,6.21v18h31.9c-9.19-8.01-20.01-14.2-31.9-18"/>
  <path class="cls-2" d="M76.65,92.39c0,7.26,5.54,13.21,12.62,13.91v-27.82c-7.08.69-12.62,6.64-12.62,13.91"/>
  <polygon class="cls-1" points="109.01 57.65 91.97 75.71 126.06 75.71 109.01 57.65"/>
  <rect class="cls-1" x="107.42" y="93.91" width="18.64" height="12.58"/>
  <rect class="cls-1" x="107.42" y="78.48" width="18.64" height="12.66"/>
  <path class="cls-1" d="M92.04,78.48v27.8c7.06-.71,12.58-6.65,12.58-13.9s-5.52-13.19-12.58-13.9"/>
  <polygon class="cls-1" points="109.01 57.65 91.97 75.71 126.06 75.71 109.01 57.65"/>
  <rect class="cls-1" x="107.42" y="93.91" width="18.64" height="12.58"/>
  <rect class="cls-1" x="107.42" y="78.48" width="18.64" height="12.66"/>
  <path class="cls-1" d="M92.04,78.48v27.8c7.06-.71,12.58-6.65,12.58-13.9s-5.52-13.19-12.58-13.9"/>
  <path class="cls-5" d="M131.41,173.38c9.67-4.89,18.34-11.46,25.63-19.33h-25.63v19.33Z"/>
  <path class="cls-5" d="M153.1,26.94h-34.9v14.15h46.97c-3.54-5.12-7.58-9.87-12.07-14.15"/>
</svg>