<?xml version="1.0" encoding="UTF-8"?>
<svg id="Layer_1" xmlns="http://www.w3.org/2000/svg" version="1.1" viewBox="0 0 150 145">
  <!-- Generator: Adobe Illustrator 30.1.0, SVG Export Plug-In . SVG Version: 2.1.1 Build 136)  -->
  <defs>
    <style>
      .st0 {
        fill: #0a0203;
      }

      .st1 {
        fill: #ea0029;
      }

      .st2 {
        fill: #fff;
      }
    </style>
  </defs>
  <g>
    <g>
      <path class="st0" d="M0,117.22h3.06c1.27,0,2.18.45,2.68,1.52.4.84.44,2.83.44,3.14,0,2.12-.19,3.35-.61,4.01-.54.86-1.54,1.28-3.28,1.28H0v-9.96ZM1.27,126.07h1.2c1.77,0,2.41-.66,2.41-2.98v-2.01c0-2.01-.62-2.76-1.94-2.76h-1.67v7.75Z"/>
      <path class="st0" d="M8.4,127.18v-9.96h5.13v1.1h-3.86v3.2h3.59v1.1h-3.59v3.45h3.94v1.1h-5.21Z"/>
      <path class="st0" d="M15.46,127.18v-9.96h2.95c1.34,0,2.77.5,2.77,2.84s-1.77,2.73-2.79,2.73h-1.67v4.38h-1.27ZM16.73,121.69h1.39c.52,0,1.77-.14,1.77-1.7s-1.13-1.67-1.41-1.67h-1.75v3.36Z"/>
      <path class="st0" d="M24.53,117.22h1.61l3.24,9.96h-1.42l-.72-2.37h-3.85l-.74,2.37h-1.28l3.16-9.96ZM25.3,118.39h-.03l-1.56,5.31h3.19l-1.6-5.31Z"/>
      <path class="st0" d="M31.94,122.6v4.58h-1.27v-9.96h3.43c1.77,0,2.39,1.24,2.39,2.48,0,1.17-.65,2.07-1.82,2.27v.03c1.14.18,1.56.57,1.63,2.56.01.43.15,1.99.34,2.61h-1.32c-.36-.69-.28-1.99-.39-3.31-.1-1.21-1.08-1.27-1.5-1.27h-1.49ZM31.94,121.5h1.9c.91,0,1.35-.79,1.35-1.66,0-.72-.36-1.52-1.34-1.52h-1.92v3.17Z"/>
      <path class="st0" d="M43.95,117.22v1.1h-2.62v8.85h-1.27v-8.85h-2.62v-1.1h6.51Z"/>
      <path class="st0" d="M46.46,127.18h-1.19v-9.96h2.06l2.51,8.36h.03l2.54-8.36h2.1v9.96h-1.27v-8.85h-.03l-2.79,8.85h-1.2l-2.73-8.85h-.03v8.85Z"/>
      <path class="st0" d="M56.75,127.18v-9.96h5.13v1.1h-3.86v3.2h3.59v1.1h-3.59v3.45h3.94v1.1h-5.21Z"/>
      <path class="st0" d="M70.54,117.22v9.96h-1.74l-3.93-8.63h-.03v8.63h-1.13v-9.96h1.79l3.88,8.52h.03v-8.52h1.13Z"/>
      <path class="st0" d="M78.43,117.22v1.1h-2.62v8.85h-1.27v-8.85h-2.62v-1.1h6.51Z"/>
      <path class="st0" d="M82.76,123.54v-3.27c0-1.99,1.02-3.25,3.13-3.25s3.13,1.27,3.13,3.25v3.27c0,2.76-1.02,3.85-3.13,3.85s-3.13-1.09-3.13-3.85ZM87.72,123.59v-3.36c0-2.08-1.43-2.15-1.83-2.15s-1.83.07-1.83,2.15v3.36c0,2.18.63,2.73,1.83,2.73s1.83-.55,1.83-2.73Z"/>
      <path class="st0" d="M91.13,127.18v-9.96h4.94v1.1h-3.67v3.2h3.48v1.1h-3.48v4.55h-1.27Z"/>
      <path class="st0" d="M104.79,119.96c.01-.57-.03-1.13-.29-1.45s-.85-.43-1.12-.43c-1.05,0-1.46.63-1.5.77-.04.11-.29.36-.29,2.07v2.66c0,2.44.8,2.73,1.78,2.73.39,0,1.56-.14,1.57-2.08h1.31c.05,3.14-2.16,3.14-2.81,3.14-1.24,0-3.14-.08-3.14-3.94v-2.81c0-2.81,1.24-3.61,3.2-3.61s2.73,1.02,2.61,2.95h-1.31Z"/>
      <path class="st0" d="M108.03,117.22h1.27v6.37c0,2.18.66,2.73,1.86,2.73s1.86-.55,1.86-2.73v-6.37h1.27v6.32c0,2.76-1.02,3.85-3.13,3.85s-3.13-1.09-3.13-3.85v-6.32Z"/>
      <path class="st0" d="M116.5,127.18v-9.96h1.27v8.85h3.65v1.1h-4.92Z"/>
      <path class="st0" d="M127.38,117.22v1.1h-2.62v8.85h-1.27v-8.85h-2.62v-1.1h6.51Z"/>
      <path class="st0" d="M128.65,117.22h1.27v6.37c0,2.18.66,2.73,1.86,2.73s1.86-.55,1.86-2.73v-6.37h1.27v6.32c0,2.76-1.02,3.85-3.13,3.85s-3.13-1.09-3.13-3.85v-6.32Z"/>
      <path class="st0" d="M138.36,122.6v4.58h-1.27v-9.96h3.43c1.77,0,2.39,1.24,2.39,2.48,0,1.17-.65,2.07-1.82,2.27v.03c1.14.18,1.56.57,1.63,2.56.01.43.15,1.99.34,2.61h-1.32c-.36-.69-.28-1.99-.39-3.31-.1-1.21-1.08-1.27-1.5-1.27h-1.49ZM138.36,121.5h1.9c.91,0,1.35-.79,1.35-1.66,0-.72-.36-1.52-1.34-1.52h-1.92v3.17Z"/>
      <path class="st0" d="M144.78,127.18v-9.96h5.13v1.1h-3.86v3.2h3.59v1.1h-3.59v3.45h3.94v1.1h-5.21Z"/>
    </g>
    <g>
      <path class="st0" d="M37.07,134.06h1.61l3.24,9.96h-1.42l-.72-2.37h-3.85l-.74,2.37h-1.28l3.16-9.96ZM37.85,135.23h-.03l-1.56,5.31h3.19l-1.6-5.31Z"/>
      <path class="st0" d="M50.14,134.06v9.96h-1.74l-3.93-8.63h-.03v8.63h-1.13v-9.96h1.79l3.88,8.52h.03v-8.52h1.13Z"/>
      <path class="st0" d="M52.48,134.06h3.06c1.27,0,2.18.45,2.68,1.52.4.84.44,2.83.44,3.14,0,2.12-.19,3.35-.61,4.01-.54.85-1.54,1.28-3.28,1.28h-2.29v-9.96ZM53.74,142.91h1.2c1.77,0,2.41-.66,2.41-2.98v-2.01c0-2.01-.62-2.76-1.94-2.76h-1.67v7.75Z"/>
      <path class="st0" d="M69.52,134.06v1.1h-2.62v8.85h-1.27v-8.85h-2.62v-1.1h6.51Z"/>
      <path class="st0" d="M70.79,140.37v-3.27c0-1.99,1.02-3.25,3.13-3.25s3.13,1.27,3.13,3.25v3.27c0,2.76-1.02,3.85-3.13,3.85s-3.13-1.09-3.13-3.85ZM75.75,140.43v-3.37c0-2.08-1.43-2.15-1.83-2.15s-1.83.07-1.83,2.15v3.37c0,2.18.63,2.73,1.83,2.73s1.83-.55,1.83-2.73Z"/>
      <path class="st0" d="M79.21,134.06h1.27v6.37c0,2.18.66,2.73,1.86,2.73s1.86-.55,1.86-2.73v-6.37h1.27v6.32c0,2.76-1.02,3.85-3.13,3.85s-3.13-1.09-3.13-3.85v-6.32Z"/>
      <path class="st0" d="M88.92,139.44v4.58h-1.27v-9.96h3.43c1.77,0,2.39,1.24,2.39,2.48,0,1.17-.65,2.07-1.82,2.28v.03c1.14.18,1.56.56,1.63,2.56.01.43.15,1.99.34,2.61h-1.32c-.36-.69-.28-1.99-.39-3.31-.1-1.21-1.08-1.27-1.5-1.27h-1.49ZM88.92,138.33h1.9c.91,0,1.35-.79,1.35-1.65,0-.72-.36-1.52-1.34-1.52h-1.92v3.17Z"/>
      <path class="st0" d="M96.78,144.02h-1.27v-9.96h1.27v9.96Z"/>
      <path class="st0" d="M100.16,141.05v.29c0,1.35.86,1.78,1.67,1.78,1.01,0,1.78-.43,1.78-1.61,0-2.21-4.47-1.96-4.47-4.95,0-1.77,1.26-2.7,2.92-2.7,1.82,0,2.84.88,2.76,2.91h-1.32c.01-1.09-.33-1.81-1.53-1.81-.76,0-1.53.39-1.53,1.46,0,2.19,4.47,1.87,4.47,5.03,0,2.1-1.45,2.77-3.09,2.77-2.94.03-2.94-2.22-2.91-3.17h1.25Z"/>
      <path class="st0" d="M108.05,144.02h-1.19v-9.96h2.05l2.51,8.36h.03l2.54-8.36h2.1v9.96h-1.27v-8.85h-.03l-2.79,8.85h-1.2l-2.73-8.85h-.03v8.85Z"/>
    </g>
    <g>
      <path class="st0" d="M5.69,105.73c0,.22.09.33.28.33h.77v1.21h-.93c-.4,0-.72-.13-.96-.4-.24-.26-.37-.65-.37-1.14l-.02-5.11c-.28.14-.61.31-.99.52-.38.21-.73.46-1.06.76-.33.3-.61.64-.85,1.03-.24.39-.35.83-.35,1.33,0,.68.21,1.16.63,1.43.42.27,1.08.45,1.98.53l-.09,1.21c-.79-.05-1.43-.18-1.92-.4-.49-.22-.87-.48-1.13-.78s-.45-.63-.54-.98c-.09-.35-.14-.69-.14-1.02,0-.86.23-1.6.68-2.23.45-.63.98-1.16,1.6-1.6.61-.44,1.24-.78,1.88-1.04s1.15-.44,1.54-.55v6.88ZM3.01,96.89c0,.22-.08.41-.23.56-.16.16-.34.23-.56.23s-.41-.08-.56-.23-.23-.34-.23-.56.08-.4.23-.56c.16-.16.34-.23.56-.23s.4.08.56.23c.16.16.23.34.23.56ZM5.65,96.89c0,.22-.08.41-.23.56s-.34.23-.56.23-.4-.08-.56-.23c-.16-.16-.23-.34-.23-.56s.08-.4.23-.56c.16-.16.34-.23.56-.23s.4.08.56.23c.16.16.23.34.23.56Z"/>
      <path class="st0" d="M9.88,107.27h-3.14c-.23,0-.43-.07-.58-.21s-.23-.27-.23-.4.08-.26.23-.4.35-.21.58-.21h3.14v1.21Z"/>
      <path class="st0" d="M9.88,107.27c-.23,0-.43-.07-.58-.21s-.23-.27-.23-.4.08-.26.23-.4.35-.21.58-.21h6.11c-.16-.31-.28-.72-.36-1.23s-.15-1.15-.2-1.95c-.05-.58-.14-1.03-.28-1.35-.14-.33-.31-.57-.51-.74-.2-.16-.42-.27-.65-.31-.23-.05-.47-.07-.7-.07-.54,0-1.1.19-1.68.56l-.75-.96c.3-.22.65-.41,1.07-.57s.88-.25,1.38-.25c1.03,0,1.81.3,2.36.9.54.6.87,1.5.98,2.7.09,1.06.19,1.82.28,2.29.09.47.3.75.61.84l.65.19-.05,1.17h-8.26Z"/>
      <path class="st0" d="M19.85,107.27v-12.25h1.21v11.04h1.05v1.21h-2.26Z"/>
      <path class="st0" d="M24.19,107.27h-2.08c-.23,0-.43-.07-.58-.21s-.23-.27-.23-.4.08-.26.23-.4.35-.21.58-.21h2.08v1.21Z"/>
      <path class="st0" d="M24.19,107.27c-.23,0-.43-.07-.58-.21s-.23-.27-.23-.4.08-.26.23-.4.35-.21.58-.21h3.15v-5.95h1.21v5.95h1.05v1.21h-5.41ZM25.54,110.59c-.22,0-.4-.08-.56-.23-.16-.16-.23-.34-.23-.56s.08-.41.23-.56c.16-.16.34-.23.56-.23s.4.08.56.23c.15.16.23.34.23.56s-.08.4-.23.56c-.16.16-.34.23-.56.23ZM27.92,110.59c-.22,0-.4-.08-.56-.23-.16-.16-.23-.34-.23-.56s.08-.41.23-.56c.16-.16.34-.23.56-.23s.4.08.56.23.23.34.23.56-.08.4-.23.56c-.16.16-.34.23-.56.23Z"/>
      <path class="st0" d="M32.18,107.27h-2.55c-.23,0-.43-.07-.58-.21s-.23-.27-.23-.4.08-.26.23-.4.35-.21.58-.21h2.55v1.21Z"/>
      <path class="st0" d="M42,106.06v1.21h-9.82c-.23,0-.43-.07-.58-.21s-.23-.27-.23-.4.08-.26.23-.4.35-.21.58-.21h.33c.51,0,.82-.06.92-.18.1-.12.15-.31.15-.57v-5.3h1.21v6.04h1.94v-6.04h1.21v6.04h1.75v-6.04h1.26v6.04h1.05Z"/>
      <path class="st0" d="M46.2,107.27h-4.2c-.23,0-.43-.07-.58-.21s-.23-.27-.23-.4.08-.26.23-.4.35-.21.58-.21h4.2v1.21Z"/>
      <path class="st0" d="M47.25,94.95h1.21v12.32h-2.26c-.23,0-.43-.07-.58-.21s-.23-.27-.23-.4.08-.26.23-.4.35-.21.58-.21h1.05v-11.11Z"/>
      <path class="st0" d="M50.33,95.02h1.21v12.25h-1.21v-12.25Z"/>
      <path class="st0" d="M58.97,107.88c0,.56-.04,1.1-.11,1.63-.08.53-.23,1-.45,1.41-.22.41-.54.75-.95,1-.41.26-.96.39-1.64.39v-1.21c.48,0,.86-.1,1.12-.29.26-.2.46-.46.58-.79.12-.33.2-.71.22-1.14.02-.43.04-.88.04-1.35v-.26h-.65c-1.26,0-2.24-.28-2.94-.84s-1.05-1.31-1.05-2.24c0-.65.14-1.27.43-1.84.29-.58.69-1.09,1.21-1.53s1.13-.8,1.85-1.09c.71-.28,1.5-.46,2.35-.54v8.68ZM57.75,106.06v-5.41c-1.03.28-1.86.73-2.48,1.34-.62.62-.93,1.33-.93,2.16,0,.59.24,1.06.7,1.4s1.21.51,2.23.51h.47Z"/>
      <path class="st0" d="M70.03,105.73c0,.22.09.33.28.33h.77v1.21h-.93c-.4,0-.72-.13-.96-.4-.24-.26-.37-.65-.37-1.14l-.02-5.11c-.28.14-.61.31-.99.52-.38.21-.73.46-1.06.76-.33.3-.61.64-.85,1.03-.24.39-.35.83-.35,1.33,0,.68.21,1.16.63,1.43.42.27,1.08.45,1.98.53l-.09,1.21c-.79-.05-1.43-.18-1.92-.4-.49-.22-.87-.48-1.13-.78s-.45-.63-.54-.98c-.09-.35-.14-.69-.14-1.02,0-.86.23-1.6.68-2.23.45-.63.98-1.16,1.6-1.6.61-.44,1.24-.78,1.88-1.04s1.15-.44,1.54-.55v6.88ZM67.34,96.89c0,.22-.08.41-.23.56-.16.16-.34.23-.56.23s-.41-.08-.56-.23-.23-.34-.23-.56.08-.4.23-.56c.16-.16.34-.23.56-.23s.4.08.56.23c.16.16.23.34.23.56ZM69.98,96.89c0,.22-.08.41-.23.56s-.34.23-.56.23-.4-.08-.56-.23c-.16-.16-.23-.34-.23-.56s.08-.4.23-.56c.16-.16.34-.23.56-.23s.4.08.56.23c.16.16.23.34.23.56Z"/>
      <path class="st0" d="M74.22,107.27h-3.14c-.23,0-.43-.07-.58-.21s-.23-.27-.23-.4.08-.26.23-.4.35-.21.58-.21h3.14v1.21Z"/>
      <path class="st0" d="M74.22,107.27c-.23,0-.43-.07-.58-.21s-.23-.27-.23-.4.08-.26.23-.4.35-.21.58-.21h2.33c-1.01-.68-1.52-1.66-1.52-2.92,0-.59.11-1.12.34-1.58.23-.46.55-.85.97-1.17s.92-.56,1.49-.72c.58-.16,1.21-.24,1.91-.24.26,0,.5,0,.7.02.2.02.45.05.75.09v7.72h-6.98ZM76.25,103.18c0,.77.31,1.4.92,1.9.61.5,1.55.84,2.82,1.01v-5.44h-.09s-.06,0-.07-.01-.04-.01-.07-.01c-.42,0-.85.04-1.27.1-.42.07-.8.2-1.13.39s-.6.45-.8.77c-.2.33-.31.76-.31,1.29ZM80.05,96.56c0,.22-.08.4-.23.56-.16.16-.34.23-.56.23s-.4-.08-.56-.23c-.16-.16-.23-.34-.23-.56s.08-.41.23-.56c.16-.16.34-.23.56-.23s.4.08.56.23.23.34.23.56Z"/>
      <path class="st0" d="M83.06,107.27v-12.25h1.21v11.04h1.05v1.21h-2.26Z"/>
      <path class="st0" d="M89.52,107.27h-4.2c-.23,0-.43-.07-.58-.21s-.23-.27-.23-.4.08-.26.23-.4.35-.21.58-.21h4.2v1.21Z"/>
      <path class="st0" d="M89.52,107.27c-.23,0-.43-.07-.58-.21s-.23-.27-.23-.4.08-.26.23-.4.35-.21.58-.21h1.68c-.26-.36-.47-.77-.63-1.24-.16-.47-.23-.96-.23-1.49s.08-1.06.24-1.54c.16-.48.39-.91.68-1.27.29-.37.63-.65,1.02-.86.39-.21.8-.32,1.24-.32s.84.11,1.22.32c.38.21.72.5,1,.86s.51.79.68,1.27c.16.48.24,1,.24,1.54s-.08,1.03-.23,1.49c-.16.47-.37.88-.63,1.24h1.68v1.21h-7.96ZM92.98,97.13c0,.22-.08.41-.23.56-.16.15-.34.22-.56.22s-.4-.07-.56-.22c-.16-.15-.23-.34-.23-.56s.08-.41.23-.57c.16-.16.34-.24.56-.24s.4.08.56.24c.16.16.23.35.23.57ZM91.55,103.32c0,.7.16,1.31.49,1.83s.73.82,1.21.91h.49c.48-.09.89-.4,1.21-.91s.49-1.12.49-1.83c0-.37-.05-.73-.15-1.07-.1-.34-.24-.63-.42-.88-.18-.25-.38-.45-.62-.6-.23-.15-.48-.22-.75-.22s-.52.07-.76.22-.45.35-.63.6c-.18.25-.32.54-.42.88-.1.34-.15.69-.15,1.07ZM95.61,97.13c0,.22-.08.41-.23.56-.16.15-.34.22-.56.22s-.41-.07-.56-.22-.23-.34-.23-.56.08-.41.23-.57c.16-.16.34-.24.56-.24s.4.08.56.24c.16.16.23.35.23.57Z"/>
      <path class="st0" d="M99.56,107.27h-2.08c-.23,0-.43-.07-.58-.21s-.23-.27-.23-.4.08-.26.23-.4.35-.21.58-.21h2.08v1.21Z"/>
      <path class="st0" d="M99.56,107.27c-.23,0-.43-.07-.58-.21s-.23-.27-.23-.4.08-.26.23-.4.35-.21.58-.21h3.15v-5.95h1.21v5.95h1.05v1.21h-5.41ZM100.91,98.8c-.22,0-.4-.08-.56-.23-.16-.16-.23-.34-.23-.56s.08-.4.23-.56c.16-.16.34-.23.56-.23s.4.08.56.23c.15.16.23.34.23.56s-.08.41-.23.56c-.16.16-.34.23-.56.23ZM102.9,96.1c0,.22-.08.41-.23.57s-.34.25-.56.25-.4-.08-.56-.25c-.16-.16-.23-.35-.23-.57s.08-.4.23-.55c.16-.15.34-.22.56-.22s.4.07.56.22.23.33.23.55ZM103.29,98.8c-.22,0-.4-.08-.56-.23-.16-.16-.23-.34-.23-.56s.08-.4.23-.56c.16-.16.34-.23.56-.23s.4.08.56.23.23.34.23.56-.08.41-.23.56-.34.23-.56.23Z"/>
      <path class="st0" d="M109.2,107.27h-4.2c-.23,0-.43-.07-.58-.21s-.23-.27-.23-.4.08-.26.23-.4.35-.21.58-.21h4.2v1.21Z"/>
      <path class="st0" d="M110.25,94.95h1.21v12.32h-2.26c-.23,0-.43-.07-.58-.21s-.23-.27-.23-.4.08-.26.23-.4.35-.21.58-.21h1.05v-11.11Z"/>
      <path class="st0" d="M113.33,95.02h1.21v12.25h-1.21v-12.25Z"/>
      <path class="st0" d="M125.55,107.27h-1.28c-.41,0-.86-.05-1.37-.16-.51-.11-.98-.29-1.42-.54-.44-.25-.82-.58-1.12-.99s-.46-.92-.46-1.53c0-.56.11-1.07.33-1.53.22-.46.5-.87.84-1.24s.73-.69,1.15-.97c.43-.28.85-.52,1.27-.71s.81-.35,1.18-.47.66-.2.88-.25v8.38ZM124.34,106.01v-5.41c-.28.12-.61.29-.98.49s-.72.45-1.05.74-.61.62-.84.99c-.23.37-.35.79-.35,1.26,0,.36.1.66.3.91.2.25.46.45.77.61.31.16.65.27,1,.33.36.06.69.09,1,.09h.14ZM123.08,96.89c0,.22-.08.41-.23.56s-.34.23-.56.23-.4-.08-.56-.23c-.16-.16-.23-.34-.23-.56s.08-.4.23-.56c.16-.16.34-.23.56-.23s.4.08.56.23c.16.16.23.34.23.56ZM125.72,96.89c0,.22-.08.41-.23.56-.16.16-.34.23-.56.23s-.4-.08-.56-.23c-.16-.16-.23-.34-.23-.56s.08-.4.23-.56c.16-.16.34-.23.56-.23s.4.08.56.23c.16.16.23.34.23.56Z"/>
      <path class="st0" d="M128.87,107.81c0,.51-.03,1.03-.09,1.56-.06.53-.2,1.01-.42,1.45-.22.44-.54.79-.96,1.06s-.99.41-1.7.41v-1.21c.45,0,.81-.09,1.07-.28.26-.19.46-.43.6-.74.13-.3.21-.65.24-1.04.03-.39.05-.79.05-1.21v-7.72h1.21v5.97h1.05v1.21h-1.05v.54Z"/>
      <path class="st0" d="M132,107.27h-2.08c-.23,0-.43-.07-.58-.21s-.23-.27-.23-.4.08-.26.23-.4.35-.21.58-.21h2.08v1.21Z"/>
      <path class="st0" d="M135.14,107.27h-3.14c-.23,0-.43-.07-.58-.21s-.23-.27-.23-.4.08-.26.23-.4.35-.21.58-.21h3.14v1.21Z"/>
      <path class="st0" d="M137.47,100.09h1.21v7.19h-3.55c-.23,0-.43-.07-.58-.21s-.23-.27-.23-.4.08-.26.23-.4.35-.21.58-.21h2.33v-5.97ZM138.94,97.2c-.36-.16-.69-.24-1-.24-.2,0-.37.04-.49.12-.12.08-.19.22-.19.42,0,.3.12.52.35.65.23.13.52.2.86.2h.58v.61h-3.13v-.61h1c-.06-.03-.12-.13-.19-.31-.06-.17-.09-.35-.09-.54,0-.42.13-.72.4-.9.26-.17.55-.26.86-.26.42,0,.84.09,1.26.26l-.23.59Z"/>
      <path class="st0" d="M140.57,95.02h1.21v12.25h-1.21v-12.25Z"/>
      <path class="st0" d="M143.37,100.32c.31-.27.71-.51,1.19-.75.48-.23,1.06-.35,1.73-.35.62,0,1.17.13,1.63.39.47.26.85.59,1.16,1.02.31.42.54.9.69,1.43s.23,1.09.23,1.64c0,.42-.03.82-.1,1.21-.07.39-.15.74-.25,1.05-.1.31-.2.58-.31.81-.11.23-.19.39-.25.5h-5.78v-1.21h5.02c.09-.23.19-.54.3-.93.11-.39.16-.86.16-1.42,0-.44-.06-.85-.18-1.25-.12-.4-.28-.74-.49-1.04-.21-.3-.47-.53-.79-.71-.32-.18-.67-.27-1.06-.27-.33,0-.66.06-1,.18-.34.12-.73.33-1.17.64l-.72-.93Z"/>
    </g>
  </g>
  <g>
    <path class="st2" d="M100.97,67.39c-1.9,3.74-4.27,6.07-7.51,8.13-4.73,3-9.66,2.28-11.27,1.35,0,0,.13.31.17.42.05.11.12.29.16.39.63,1.71.21,3.48-2.11,3.74-.61.07-1.29.1-2.09.47-.56.26-1.19.69-1.87,1.4-.29.3-.89,1.07-1.18,1.67h0s0,0,0,0h0s0,0,0,0c-.3-.6-.9-1.37-1.19-1.67-.69-.71-1.31-1.14-1.87-1.4-.8-.37-1.49-.4-2.1-.47-2.31-.27-2.73-2.04-2.11-3.75.04-.09.1-.27.15-.38l.17-.42c-1.17.68-4.08,1.21-7.47.29-.08-.02-.25-.07-.33-.09-2.73-.72-5.14-2.07-7.18-4-2.47-2.31-3.81-4.81-4.32-5.76-4.5-9.31-3.87-23.12-3.89-24.59-.15-15.95,3.38-24.89,6.41-29.21-.91-1.21-1.47-1.93-1.51-1.98-.31-.3-.83-.78-1.91-.93-.3-2.09-1.08-4.57-1.08-4.57,0,0,2.09,1.5,4.04,2.35-.15,1.05.12,1.69.39,2.08.04.05.47.64,1.2,1.6,1.34-1.67,2.77-2.89,5.02-4.19.54-.31,1.12-.6,1.74-.88-.04-.85.25-1.65.81-2.22.02-.49.44-1.11.93-1.29h0c.52-.14,1.29.1,1.67.46.85.12,1.66.56,2.25,1.23,1.85-.39,3.95-.69,6.36-.83.28-1.17,1.04-2.02,1.98-2.48.24-.51.95-1.02,1.55-1.05h0c.6.03,1.31.55,1.55,1.05.94.46,1.69,1.31,1.98,2.48,2.41.15,4.51.44,6.36.83.6-.67,1.41-1.11,2.25-1.23.38-.36,1.16-.6,1.67-.46h0c.5.19.91.8.94,1.29.56.57.86,1.37.81,2.22.62.28,1.2.58,1.74.88,2.25,1.3,3.81,2.71,5.12,4.25.8-1.06,1.29-1.71,1.33-1.76.27-.38.54-1.02.39-2.08,1.95-.84,4.04-2.35,4.04-2.35,0,0-.78,2.48-1.08,4.57-1.08.15-1.6.63-1.9.93-.05.05-.68.88-1.71,2.24,3.01,4.35,6.5,13.22,6.35,29.07.02,1.27.62,15.35-3.88,24.66M91.01,20.62c-4.73-4.67-11.5-4.99-13.27-4.86-.41.03-.89.36-.36,1.04-.38.17-1.83.04-2.37-.46-.55.51-1.99.63-2.37.46.52-.68.05-1.01-.36-1.04-1.78-.13-8.9.56-13.2,4.76,2.37,3.13,7.32,9.68,7.42,9.81.09.12.34.29.64.29.04,0,.08,0,.12,0,.26-.01.5-.19.76-.48.51-.56.77-.87,1.27-1.39.97-.99,1.89-1.75,2.04-1.89.41-.38.55-.68.56-1-.03-.36-.31-.5-.48-.72,0,.03-.06.09-.09.13-.16-.12-.34-.68-.34-.68l-.1.25s-.36-.88-.94-.8c-.79.11-1.31-.23-1.36-.25-.05-.01-.08.25-.06.56-.01,0-.02,0-.03-.01-.55-.46-.71-1.65.34-2.42.64-.47.76-.46,1.26-.69.21-.1.37-.3.42-.36.33-.41,1-.64,1.39-.74.48-.13,1.63-.29,2.78-.22.64.03,1.25.18,1.68.36.34.14,1.32.86,1.86,1.57.36.47.97,1.8,1.32,2.64.72,1.76.64,1.57,1.13,2.74.56,1.34.9,2.08,1.44,2.83.19.26.38.36.75.38.27.01.54-.04.78-.18.22-.13.26-.22.33-.31,1.66-2.41,4.75-6.28,7.07-9.34"/>
    <g>
      <path class="st1" d="M79.44,72.57s-.06.08-.09.1c-.01,0-.02.01-.03.01,0,0-.01,0-.03,0-.1-.04-.39-.22-.74-.55.37,1.43.71,3.75.8,5.64,1.02-.42,1.83-.11,2.34.33-.01-.04-2.03-5-2.25-5.54,0,0,0,0,0,0"/>
      <path class="st1" d="M88.9,26.4s.03,0,.04.01c.06.01.11.03.17.05.33.13.61.32.86.58.96,1,2.52,3.41,3.42,5.9.49,1.56.88,3.7.78,5.53h0s-.56,10.32-1.67,20.21c-1.01,8.98-1.56,10.16-1.56,10.16-.64-.83-.91-1.88-1.06-2.48l-.1.08s-.58-.9-.94-2.67c-.4-2.01-.47-5.62-.43-7.36h0s.03-.5-.37-1.37c-.19-.41-.33-.82-.43-1.26,0,0,0-.01-.01-.02-.61-2.76-1.79-3.54-2.44-4.4-.82-1.08-1.33-1.72-1.62-2.35-.48.46-.85.93-.87,1.19.16,1.67.32,2.85.07,3.7-.1-.05-.26-.22-.35-.28.11,1.1-.41,2.38-.08,3.39l-.65-.09c.03.07.05.13.07.16.09.12.18.2.33.28.03.02.16.08.21.1.06.03.22.09.67.24.38-.83.09-1.62-.28-2.08-.31-.38.06-.93.71-.64.83.37,1.73.89,2.68,1.79,1.36,1.29,1.76,2.54,1.47,2.79-.22.19-.39.15-.66.06,0,.05,0,.1-.02.15-.07.24-.28.42-.59.5l-.03.05c-.15.2-.38.28-.79.27-.35,0-.74-.21-.8-.24-.07-.04-.16-.09-.27-.19-.12.09-.25.2-.38.32.01.01.15.16.15.16.09.09.53.57.63,1.16,0,0,.03.18.04.27,1.13,1.34,2.45,2.97,3.4,4.58,1,1.71,1.47,3.14,1.47,3.14,0,0-.53.17-1.24.01.25.69.38,1.29.33,1.75-.54.02-1.25-.04-1.99-.44.05.23.09.46.11.7,1,.65,1.75,1.26,2.14,1.54-3.23,1.51-7.92.82-8.01.81-.27-.03-.51-.07-.72-.1,0,0-.14-.03-.15-.03,0,0,1.15,2.74,1.36,3.19,2.05.94,3.96,1.55,6.9,1.07,0,0,.5-.05,1.76-.47,1.29-.43,3.7-1.85,5.55-3.59,2.31-2.16,3.71-4.45,4.16-5.34,3.58-6.99,4.17-17.35,4.17-21.54,0-1.37,0-2.11,0-2.18-.02-1.41-.11-3.51-.16-4.57-1.25,1.09-2.81,2.23-7.7,4.93l-.86.5-.04-1.02c0-.09-.06-8.58-4.37-19.28-.67.89-1.35,1.79-2.03,2.69"/>
      <path class="st1" d="M71.15,77.77c.08-1.65.36-3.91.68-5.51-.08.07-.26.2-.33.25-.07.05-.21.14-.26.17-.01,0-.02,0-.02,0,0,0-.01,0-.02-.01-.03-.02-.1-.11-.11-.13-.36.86-2.26,5.52-2.27,5.56.52-.43,1.33-.75,2.34-.33"/>
      <path class="st1" d="M78.73,79.01c.07-1.46-.62-5.74-.92-7.49h0c-.1-.04-.2-.07-.31-.11-.08.24-.18.48-.3.72-.21.45-.55.91-.61.9-.05,0-.95-.61-1.52-1.79-.57,1.16-1.45,1.75-1.5,1.76-.07,0-.4-.46-.61-.91-.12-.25-.22-.5-.3-.75-.01.02-.02.03-.04.05-.27,1.8-.92,6.16-.86,7.62-1.94-1.28-3.11,0-2.71.89.04.08.08.15.13.21.23.31.53.48.96.51.62.04,1.45.1,2.38.54.85.4,1.78,1.07,2.72,2.24.94-1.17,1.86-1.83,2.71-2.24.94-.44,1.76-.5,2.39-.54.42-.03.72-.23.96-.51.05-.06.09-.13.13-.21.4-.89-.78-2.17-2.71-.89"/>
    </g>
    <g>
      <path class="st1" d="M50.11,66.8c.48.88,1.75,3.24,4.06,5.41,1.75,1.65,3.79,2.82,6.06,3.55.13.04.39.13.52.17,2.61.83,5.45.66,8.25-.74l.03-.08c.19-.52,1.31-3.18,1.31-3.18-.05,0-.09.02-.14.02-.5.09-1.02.16-1.53.22-.3.03-4.75.72-7.98-.8.47-.33,1.45-1.15,2.79-1.93.02-.14.04-.27.07-.41-.74.4-1.45.46-1.99.44-.05-.46.08-1.07.33-1.75-.71.15-1.24-.01-1.24-.01,0,0,.46-1.43,1.47-3.14.79-1.34,1.83-2.69,2.81-3.88-.06-.13-.1-.28-.1-.45,0-.19.03-.35.05-.46.11-.6.58-1.1.63-1.16.03-.03.17-.18.19-.21-.13-.12-.26-.22-.38-.31-.13.14-.23.21-.32.24-.37.17-.6.23-.8.24-.41.02-.64-.07-.79-.27l-.03-.05c-.3-.08-.51-.26-.58-.5-.02-.05-.02-.1-.02-.15-.22.08-.38.09-.59-.08-.29-.25.11-1.49,1.47-2.78.95-.9,1.85-1.43,2.68-1.79.64-.28,1.02.27.71.65-.38.45-.67,1.25-.29,2.08.39-.13.55-.19.6-.22.15-.06.33-.11.54-.38.02-.02.04-.07.07-.14l-.57.07c.29-.71-.16-2.46.14-3.6-.08.05-.28.19-.39.23-.21-1.03-.18-2.67-.1-3.46-.02-.22-.33-.61-.77-1.03-.3.57-.79,1.19-1.53,2.16-.66.86-1.84,1.64-2.45,4.4,0,0,0,.01,0,.02-.03.11-.05.22-.08.33h0c-.03.12-.07.24-.11.35-.03.07-.06.15-.09.22-.05.12-.1.24-.15.36-.4.87-.37,1.38-.37,1.38h0c.04,1.73-.03,5.33-.43,7.35-.35,1.77-.94,2.67-.94,2.67l-.09-.08c-.15.6-.42,1.65-1.07,2.48,0,0-.55-1.18-1.56-10.16-1.11-9.89-1.67-20.21-1.67-20.21,0,0,0,0,0,0-.1-1.83.25-3.97.77-5.52.85-2.51,2.47-4.9,3.43-5.9.26-.27.57-.49.93-.59,0,0,.21-.06.32-.07h0c-.7-.93-1.4-1.87-2.1-2.78-4.35,10.75-4.41,19.3-4.41,19.39l-.04,1.02-.86-.5c-4.89-2.7-6.45-3.84-7.7-4.93-.05,1.06-.16,4.55-.16,4.55,0,.06,0,.82,0,2.19,0,4.19.75,14.47,4.17,21.54"/>
      <path class="st0" d="M81.64,36.25c.44.57-.09,1.45-.48,2.06.17-.83.27-1.49.48-2.06M69.85,31.77c.39-1.4,1.18-2.2,1.45-3.02-1.41,1-1.7,2.53-1.45,3.02M78.76,43.24c.85-1.05,1.3-2.26.93-3.5-.76,1.19-.78,2.39-.93,3.5M81.38,33.88c-.6.13-.38,2.51-.4,2.5-.01-.03.92-1.62.4-2.5M69.47,38.03c-.33,1.4,1.07,2.75,1.08,2.77,0,.02,0-1.66-1.08-2.77M69.45,40.3c-.05.25.16,1.02.43,1.48.48.81.85,1.18,1.24,1.57-.6-.91-1.08-2.59-1.67-3.05M80.93,30.25c-.09.72.74,2.35.77,2.49.02-.12.48-1.49-.77-2.49M68.16,33.6c-.11-.69.75-1.33.45-2.44-.85.96-.68,1.87-.45,2.44M70.46,35.4c-.02.59-.01,1.14-.15,1.79-.4-.1-.58-.37-.88-.61.24.79,1.22,1.71,1.38,1.94.14-1.08.18-2.39-.35-3.12M75.46,21.88c.26.26,1.1.62,1.56,1.05-.06-.72-.69-1.1-1.56-1.05M78,27.77c0-.53-.17-1.47-1.38-1.65-.08.63.99,1.01,1.38,1.65M72.9,21.48s.1.17.06.46c-.04.29-.17.56-.6.66-.45.11-.93-.18-.94-.66,0-.13.03-.29.08-.39-.15.02-.16.12-.31.31-.09.11-.24.1-.44.24,0-.28.31-.72.65-.87.51-.23,2.27-.31,3.52.35-.44-.08-.82-.05-1.23-.08-.51-.03-.78-.02-.78-.02M72.68,21.49c-.05-.03-.45-.03-.49.05-.05.08.24.21.33.24.06.02.14-.01.18-.09.05-.08.04-.17-.02-.2M74.42,21.87c.39.48.8.89,1.48.84-.49-.58-1.15-.79-1.48-.84M80.94,39.1c-.55.75-.71,2.44-.88,3,.2-.18,1.21-2.58.88-3M77.63,24.18c-.04-.16-.43-.71-1.27-.89.23.21.37.6.45.74-.16.09-.61.13-.76.16.31.22.87.27,1.58-.01M77.51,29.48c-.56.61-.04,1.82.29,2.91.3-.53.66-2.34-.29-2.91M80.51,32.26c-.32,1.49-.97,2.06-.97,2.05,0,0-.52-.42-.96-.99-.03,1.21,1.01,2.37.99,2.37,0,0,1.26-1.01.94-3.43M78.92,27.11c-.12.68.97,1.7.96,1.7,0,0,.15-1.29-.96-1.7M76.67,25.49c.28.28,1.17.49,1.67.96-.07-.76-.85-1.24-1.67-.96M91.76,33.91c-.24,2.52-.43,3.04-.68,3.48-.21-.15-.39-.67-.39-.67-.07.46.03,1.16.4,1.53.5-.66.84-2.05.68-4.33M68.64,37.93c-.19-1.19-.11-1.99-.69-3.04-.19,1.25.57,2.85.69,3.04M87.34,40.65s-.39-.95.51-3.83c-1.32,2.93-1.14,3.72-.85,4.72.57-.43.79-.71.91-1.38-.21.33-.58.49-.58.49M86.46,38.16s-.31-.65.49-3.15c-1.48,2.38-.83,4.03-.83,4.03,0,0,.78-.41.98-1.31-.22.3-.64.42-.64.42M92.89,39.8s.64-1.06.31-2.84c-.08,1.67-.45,2.3-.45,2.3,0,0-.23-.16-.28-.28-.01.51.42.82.42.82M91.58,38.11c-.04.58.44.95.44.95,0,0,.77-1.18.47-3.21-.16,1.9-.55,2.55-.55,2.55,0,0-.31-.15-.36-.29M91.29,32.22c-.38,2.82-.79,3.46-1.09,3.94-.21-.17-.41-.87-.41-.87-.1.51-.02,1.3.38,1.73.58-.72,1.21-2.24,1.12-4.8M80.14,48.75s0-.44-.15-.6c-.12.55-.84,1.71-.68,3.05.33-1.2,1.26-1.45,1.5-2.56.2.13.38.19.58.21-.11-.44-.44-.9-.55-1.82-.1.31-.22,1.21-.7,1.72M90.61,31.18c-.36,2.33-.99,3.32-1.3,3.78-.25-.77-.19-1.53-.19-1.53-.36,1.1-.25,2.01.12,2.47.61-.67,1.49-2.77,1.38-4.72M88.35,33.34c-.18-.79-.08-1.98-.08-1.98-.46,1.06-.4,2.51-.07,3,.67-.62,1.59-2.43,1.66-4.38-.57,2.29-1.14,2.93-1.5,3.36M76.73,37.84s1.08-1.01,1.18-3.08c-.6,1.02-1.28,1.6-1.27,1.59,0,0-.58-.39-1.05-.97,0,1.32,1.16,2.46,1.15,2.46M60.6,34.95c-.32-.46-.94-1.44-1.3-3.78-.11,1.95.77,4.05,1.38,4.72.36-.46.47-1.37.11-2.47,0,0,.06.76-.19,1.53M62.57,40.65s-.36-.16-.57-.49c.12.67.35.95.91,1.38.29-1,.47-1.79-.85-4.72.9,2.87.51,3.83.51,3.83M61.55,33.34c-.36-.43-.93-1.07-1.5-3.36.06,1.95.99,3.77,1.66,4.38.32-.49.38-1.94-.07-3,0,0,.09,1.19-.08,1.98M70.07,22.09c-.07.05-.14.29.13.3.23,0,.27-.25.27-.25,0,0-.29-.12-.4-.05M58.83,37.38c-.25-.44-.44-.96-.68-3.48-.17,2.28.18,3.67.67,4.33.37-.37.47-1.07.39-1.53,0,0-.17.52-.38.67M57.16,39.26s-.37-.62-.45-2.3c-.33,1.78.31,2.84.31,2.84,0,0,.43-.31.42-.82-.05.12-.28.28-.28.28M57.97,38.4s-.4-.65-.56-2.55c-.3,2.04.47,3.21.47,3.21,0,0,.48-.37.44-.95-.05.14-.36.29-.36.29M59.71,36.17c-.3-.48-.71-1.12-1.09-3.94-.09,2.56.55,4.09,1.12,4.8.39-.43.48-1.22.38-1.73,0,0-.2.69-.41.87M70.41,51.11c.16-1.34-.56-2.5-.68-3.05-.15.16-.15.61-.15.61-.48-.51-.6-1.41-.7-1.72-.11.92-.43,1.37-.55,1.81.2-.02.38-.08.59-.21.24,1.11,1.17,1.36,1.49,2.56M63.45,38.16s-.42-.12-.64-.42c.2.9.98,1.31.98,1.31,0,0,.65-1.66-.83-4.03.81,2.5.5,3.15.5,3.15M76.69,45.08c.25-.58.89-1.66.76-2.9-.55.47-.81,2.16-.76,2.9M76.61,48.9c.26-.63.81-1.23.79-3.22-.59.6-.85,2.47-.79,3.22M76.91,39.56c-.23.84-.61,1.39-1.23,2.02-.26-.24-.53-.53-.88-1.25-.14,1.39.66,2.2,1.11,2.51.28-.24,1.21-1.55,1-3.28M75.44,49.67c.31-.8.29-1.8-.05-2.23-.27.86-.29,1.62.05,2.23M74.54,47.27c.3-.92.23-2.03-.16-2.52-.26.93-.25,1.8.16,2.52M100.97,67.39c-1.9,3.74-4.27,6.07-7.51,8.13-4.73,3-9.66,2.28-11.27,1.35,0,0,.13.31.17.42.05.11.12.29.16.39.63,1.71.21,3.48-2.11,3.74-.61.07-1.29.1-2.09.47-.56.27-1.19.69-1.87,1.4-.29.3-.89,1.07-1.18,1.67h0s0,0,0,0c-.3-.6-.9-1.37-1.18-1.67-.69-.71-1.31-1.13-1.88-1.4-.8-.37-1.48-.4-2.09-.47-2.31-.27-2.73-2.04-2.11-3.75.04-.09.1-.27.15-.38l.17-.42c-1.17.68-4.08,1.21-7.47.29-.08-.02-.25-.07-.33-.09-2.72-.72-5.14-2.07-7.18-4-2.47-2.31-3.81-4.82-4.32-5.76-4.5-9.31-3.87-23.12-3.89-24.59-.15-15.95,3.38-24.89,6.41-29.22-.91-1.2-1.47-1.93-1.51-1.97-.31-.31-.83-.78-1.91-.93-.3-2.09-1.08-4.57-1.08-4.57,0,0,2.09,1.5,4.04,2.35-.15,1.05.13,1.69.39,2.08.04.05.48.64,1.2,1.6,1.34-1.67,2.77-2.89,5.02-4.19.54-.31,1.12-.6,1.74-.88-.04-.85.25-1.65.81-2.23.02-.49.44-1.1.93-1.29h0c.52-.14,1.29.1,1.67.46.85.12,1.66.56,2.25,1.23,1.85-.4,3.95-.69,6.36-.83.28-1.17,1.04-2.02,1.98-2.48.24-.51.95-1.02,1.55-1.05h0c.6.03,1.31.55,1.55,1.05.94.46,1.69,1.31,1.98,2.48,2.41.15,4.51.44,6.36.83.59-.67,1.41-1.11,2.26-1.23.38-.36,1.15-.6,1.67-.46h0c.5.19.91.8.94,1.29.56.57.85,1.37.81,2.23.62.28,1.2.58,1.74.88,2.25,1.3,3.81,2.71,5.12,4.25.8-1.06,1.29-1.71,1.33-1.77.27-.38.54-1.02.39-2.08,1.95-.84,4.04-2.35,4.04-2.35,0,0-.78,2.48-1.08,4.57-1.08.15-1.6.63-1.9.93-.05.05-.68.88-1.71,2.24,3.01,4.35,6.5,13.22,6.35,29.07.02,1.27.62,15.35-3.88,24.66M99.54,17.3c-1.8.42-3.08.4-3.78.38-.48,1.04-.87,2.01-.84,3.78-.72-.22-1.22-.51-1.61-.9-.57.76-1.16,1.54-1.76,2.34,3.94,9.42,4.55,17.29,4.64,19.61,6.41-3.66,7.33-4.7,7.64-5.16-.47-8.28-1.64-14.64-4.28-20.04M90.81,41.74c-.11.92-.11,1.7.11,2.55.41-.57.68-1.11.99-2.11,0,.8.22,1.69.38,2.05.55-.85.85-4.23.85-4.23,0,0,.02.08.3.19.29-1.21.13-3.69-.11-4.86-.42-2.06-1.18-4.55-3.54-7.52-1.22-1.52-2.24-.84-3.27.35-1.66,1.92-2.01,2.77-4,3.16-.2.04-.05.14.34.14,2.39-.04,3.13-1.73,3.85-2.57.47-.56,1.09-1.07,1.6-.75.19.12.84.93.17,2.91,0-.45-.16-.85-.25-.95-.31,1.32-.73,2.38-1.22,3.28-.07-.22-.11-.42-.15-.7-.24,1.61-1.59,3.28-1.78,5.58-.14-.25-.27-.41-.27-1-1.02,2.01-2.08,5.61-1.42,7.41-.02-1.83,1.04-4.47,1.58-5.31-.7,2.36-1.51,5.28-.81,7.03.05-1.5.86-3.95,1.44-4.98-.97,3.87-1.37,5.85-.29,7.34-.19-1.45.37-3.65,1.12-5.45-.5,3.03-1.22,5.66.11,6.99-.2-1.98.51-4.61.9-5.54-.42,2.86-.8,5.62.01,7.06.02-.46.06-.97.14-1.55.32-2.4.8-3.88.8-3.88,0,0-.28,2.04-.43,4.52-.15,2.42.26,3.55.53,4.02.24-3.3.6-6.14,1.01-7.46,0,0-.35,3.09-.59,7.81-.36,7.18.54,9.45.82,10.11,0,0-.06-.13-.08-1-.02-.73-.03-.68.05-1.52.02-.24-.57-1.49-.48-3.17.23-4.72.81-9.35,1.31-11.51-.05.86-.88,10.98-.82,12.27.06,1.36.43,1.96.42,2.16-.07,2.64.18,3.72.61,4.71,0,0,.26-.94.45-2.13-.04.07-.12.2-.25.24-.31-.86-.47-2.37-.26-3.92.04-.28-.35-.63-.32-1.87.07-3.12.92-9.18,1.3-10.95.04.23-.81,10.2-.82,10.85-.02,1.31.31,1.7.29,1.94-.08.94-.05,2.68.08,3.12.12-.39.19-1.1.19-1.1,0,0,.79-6.08,1.35-13,.28-3.41.64-7.67.74-9.55-.04-.04-.07-.06-.07-.06,0,0-.31,3.63-1.22,4.9-.24-.24-.54-1.59-.52-2.05-.2.72-1.03,1.68-1.03,1.68,0,0-.29-.71-.25-1.9-.28.43-.52.76-.94.99-.17-.41-.38-.89-.35-2.07-.15.22-.41.53-.84.79-.11-.27-.72-1.3.38-5.08-.44,3.5-.17,3.9-.09,4.18.22-.1.43-.28.57-.41.05-.63.15-1.43.33-2.46-.16,2.78.05,3.65.25,4.19.26-.2.62-.71,1.1-1.92M81.96,47.25s0-.07.02-.09c0,0,.02-.01.02-.02.02,0,.03,0,.03,0,.05,0,.12.04.25.12.07.04.15.1.26.15-.15-.32-.18-.81-.21-1.36-.03-.55-.07-1.18-.24-1.73,0,0,0,.01,0,.02,0-.01-.01-.03-.01-.05-.09.28-.29.53-.49.79-.28.38-.58.76-.66,1.28v.1s-.1-.07-.1-.07c-.1-.09-.22-.21-.31-.35-.03-.04-.06-.09-.08-.13h0s-.01-.02-.02-.03c-.22.82-1.61,2.58-1.94,2.95h0c-.04.06-.58.86-.79,2.83-.2,1.86,0,3.01,0,3.01l.5-.54s.02.52-.04,1.12c-.05.47-.2.83-.2.83,0,0,.98.16,1.74-.75l.14.36c.12.36.22.78-.06,1-.04.04-.52.45-.46.86.02.14.1.28.27.4h.02s0,.04,0,.04c.02.23.19.35.3.41-.04-.19-.02-.31.01-.39.1-.26.29-.33.43-.34.11,0,.2.02.2.02h.03s0,.03,0,.03c0,.01.11,1.11.21,1.57.08.41.19.94.25,1.52.01.13.03.26.04.4.04.38.27.42.47.45.1.02.37,0,.48,0h.02s-.03.02-.03.02c-.3.08-.27.2-.27.24.03.17.14.38.03.74l.04.04c.45-.24.44-.65.4-1.01v-.03s.02-.02.02-.02c.34-.2.26-.87-.23-1.91-.23-.48-.32-1.29-.17-1.37,0,0,.02,0,.03-.01.08-.01.17,0,.4.33.16.23.32.43.52.68.19.24.32.46.32.65,0,.07-.02.13-.06.16-.03.03-.08.04-.15.04-.1,0-.22,0-.31-.02.11.11.52.58.64.44.31-.35.03.22.57.28.35.02.6-.22.61-.64,0-.15-.02-.25-.04-.38-.07-.4-.38-.8-.53-.95l-.12-.13c-.9-1-.83-1.22-.77-1.31.09-.15.17-.2.41-.21.35,0,.73.05.76.05.37.07.97.16.94.36,0,.03-.04.09-.09.11-.13.05-.33.13-.36.08.03.05.16.15.34.24.15.07.77.25.97-.04l.06-.13c.11,0,.41-.05.48-.25.06-.19-.19-.46-.46-.59-.21-.11-.83-.35-1.34-.5-.2-.06-.46-.11-.65-.17l-1.09-.28s-.59-.19-.81-.29c-.11-.05-.19-.08-.23-.11-.18-.1-.32-.21-.46-.4-.12-.17-.24-.61-.37-1.09.13.07.46.3.86.35-.03-.16-.06-.7-.03-.98.17-1.8.21-2.83.21-2.83,0,0,.31.32.36.37.06-.31-.05-1.06-.11-1.81-.04-.51-.19-1.36-.36-2.09M83.25,55.8l.84.22c.12.04.26.07.4.1.14-.4.22-.82.2-1.23-.02-.47,1.05.52,1.76,1.23.3.3.35.17.18-.06-.71-.98-2.12-1.9-2.52-2.14-.68-.42-1.02-.32-.78.05.27.43.21,1.11-.09,1.83M84.17,62.79c.76.91,1.97,2.63,2.44,3.09,1,1,1.42,1.11,2.19,1.15-.24-.68-.52-1.33-1.68-3.1-.6-.91-1.61-2.22-2.4-3.26h0s-.04.08-.06.12c-.07.13-.17.24-.29.32-.18.12-.4.18-.62.16-.22-.02-.41-.11-.53-.25-.13.01-.26-.02-.39-.1.04.38-.03.67-.21.87,0,.23-.05.71-.42,1.07.04.05.06.08.06.08.26.47.15.7.03.85-.11.13-1.38,1.54-1.67,1.8-.33.3-.7-.04-.7-.04l-.21-.17s-.32.33-.58.59c.02.02.05.05.07.06h0c.41.38.91.66,1.43.88.53.23,1.52.58,2.57,1.01,0,0,0,0,0,0-.23-.55-.55-1.39-.83-2.4.29.42,1.11,1.83,1.63,2.74,0,0,0,0,0,0,.08.04.81.39,1.09.53.2.1.9.47,1.04.56-.05-.45-.15-.78-.15-.78,0,0-.64-.63-1.08-1.23-.89-1.21-1.45-2.47-1.73-3.32,1,1.44,1.25,1.85,1.65,2.35,1.26,1.62,2.6,2.32,3.11,2.33-.18-.9-.51-1.1-.51-1.1,0,0-.64-.51-1.32-1.41-.59-.76-1.28-1.91-1.93-3.42M80.89,71.5c1.79.23,5.63.17,7.01-.36-.52-.42-2.71-1.82-6.05-3.16-.69-.3-1.59-.62-2.19-1.05-.37-.27-.63-.46-1-.8-1.1-1.01-4-4.04-4.51-4.6l-1.93,1.78s5.1,4.98,6.39,5.68c1.64.89,6.34,1.96,6.34,1.96,0,0-3.61-.27-6.35-1.38-1.65-.67-6.87-5.81-6.87-5.81l-1.26,1.17c.65.71,2.04,2.29,4.32,4.13,1.59,1.29,3.5,2.14,6.1,2.46M76.44,70.92c-.32-.16-.64-.35-.96-.55h0l.29.59c.21.44.47.78.7,1.03.02-.04.05-.09.07-.14.11-.22.2-.47.29-.73-.1-.05-.26-.13-.39-.19M67.17,63.96c-.28.85-.85,2.1-1.73,3.32-.43.59-1.08,1.23-1.08,1.23,0,0-.06.21-.12.52.12-.07.25-.13.38-.19.58-.32,1.25-.61,1.89-.88.55-.93,1.32-2.2,1.59-2.59-.26.92-.57,1.71-.82,2.28.86-.34,1.61-.61,1.98-.78.6-.27.87-.5,1.11-.68.04-.03.13-.11.24-.22.01.02-.62-.62-.62-.62l-.21.17s-.36.34-.7.04c-.28-.26-1.56-1.67-1.67-1.8-.12-.15-.27-.4.02-.85,0,0,0,0,.02-.02-.4-.36-.45-.86-.45-1.1-.18-.2-.25-.49-.21-.87-.12.08-.26.11-.38.1-.13.14-.31.22-.53.25-.04,0-.06,0-.08,0-.22,0-.41-.06-.57-.18-.72.94-1.52,2-2.03,2.77-1.16,1.77-1.44,2.41-1.68,3.09.77-.05,1.19-.16,2.19-1.15.46-.46,1.67-2.18,2.44-3.09-.65,1.51-1.34,2.66-1.93,3.42-.68.89-1.33,1.4-1.33,1.4,0,0-.33.2-.51,1.1.52-.01,1.86-.71,3.12-2.33.4-.51.65-.91,1.65-2.35M65.93,58.79l-.12.13c-.15.16-.46.55-.53.95-.02.13-.04.23-.04.38.01.42.27.66.62.64.54-.06.26-.63.57-.28.12.14.53-.32.64-.44-.1.01-.22.03-.31.02-.07,0-.11-.02-.15-.04-.04-.03-.06-.08-.06-.16,0-.2.12-.41.32-.65.2-.25.36-.45.52-.68.23-.33.32-.34.39-.33h.04c.13.11.05.9-.17,1.38-.48,1.03-.57,1.71-.23,1.91l.03.02v.03c-.05.36-.05.77.39,1.01l.04-.04c-.11-.36,0-.57.03-.74,0-.04.03-.16-.26-.24h-.03s.02-.02.02-.02c.11,0,.37.03.48,0,.2-.03.42-.07.47-.45.01-.13.03-.26.04-.4.06-.59.17-1.11.26-1.52.1-.46.21-1.56.21-1.57v-.03s.03,0,.03,0c0,0,.09-.03.2-.02.14.01.33.08.43.34.03.07.05.2.01.39.11-.06.29-.18.3-.41v-.02h.02c.17-.13.26-.27.27-.41.06-.41-.41-.82-.45-.86-.28-.22-.19-.64-.07-1l.16-.43c.15.17.33.35.55.47.66.46,1.31.35,1.31.35,0,0-.15-.36-.2-.83-.06-.6-.04-1.12-.04-1.12l.5.54s.3-.99.1-2.85c-.22-2.15-.68-3-.77-3.3-.15-.49-.43-.97-.43-.97,0,0-.04.26-.39.56-.42-.52-1.15-1.54-1.34-2.24-.11.2-.28.38-.41.51l-.08.07v-.1c-.1-.52-.39-.9-.68-1.28-.2-.26-.4-.51-.49-.79-.17.56-.21,1.18-.24,1.73-.03.55-.06,1.04-.21,1.36.1-.06.19-.11.26-.15.12-.08.19-.12.24-.12h.04s.02.03.02.03c.02.03.02.06.02.09-.16.73-.31,1.58-.36,2.09-.06.75,0,1.41.06,1.72.05-.05.56-.32.56-.32,0,0-.33,1.08-.16,2.87.03.28,0,.82-.03.98.34-.05.63-.21.79-.31-.13.48-.25.92-.37,1.08-.14.19-.27.29-.46.4-.05.02-.13.06-.24.11-.21.09-.78.28-.81.29l-1.09.28c-.19.06-.4.1-.61.15-.39.09-1.17.42-1.38.52-.26.13-.52.4-.46.59.06.2.36.25.47.25l.06.13c.19.29.81.12.97.04.18-.08.31-.19.34-.24-.03.05-.24-.03-.37-.08-.05-.02-.09-.07-.09-.11-.02-.2.58-.29.94-.36.02,0,.41-.06.76-.05.24,0,.32.05.41.21.06.1.13.32-.77,1.31M66.37,53.94c.23-.37-.11-.48-.79-.06-.4.25-1.81,1.17-2.52,2.15-.17.23-.12.36.18.06.71-.71,1.78-1.7,1.76-1.23-.02.42.06.83.21,1.24.11-.02.22-.05.32-.08l.93-.24c-.29-.72-.36-1.41-.09-1.84M64.95,39.36c.55.84,1.61,3.48,1.58,5.31.66-1.8-.4-5.4-1.42-7.41,0,.59-.13.75-.27,1-.19-2.3-1.55-3.97-1.78-5.58-.04.28-.09.48-.15.7-.5-.9-.92-1.96-1.23-3.28-.09.1-.25.5-.25.95-.67-1.99-.03-2.79.17-2.91.51-.32,1.12.19,1.6.75.71.85,1.46,2.53,3.85,2.57.39,0,.54-.1.34-.14-1.99-.38-2.34-1.23-4-3.16-1.03-1.19-2.05-1.88-3.27-.35-2.37,2.97-3.12,5.46-3.54,7.52-.24,1.17-.4,3.65-.11,4.86.28-.11.3-.19.3-.19,0,0,.31,3.38.86,4.23.16-.36.38-1.25.38-2.05.3,1,.57,1.54.99,2.11.22-.85.22-1.63.11-2.55.48,1.21.84,1.72,1.1,1.92.2-.54.41-1.41.24-4.19.19,1.03.29,1.83.33,2.46.14.12.36.31.57.41.09-.28.35-.69-.09-4.18,1.1,3.79.49,4.81.38,5.08-.43-.27-.69-.58-.83-.79.03,1.18-.18,1.65-.35,2.07-.42-.24-.66-.56-.93-.99.03,1.19-.25,1.9-.25,1.9,0,0-.83-.97-1.03-1.68.02.45-.27,1.81-.52,2.05-.91-1.27-1.22-4.9-1.22-4.9,0,0-.03.03-.07.06.1,1.88.47,6.13.74,9.55.57,6.92,1.36,13,1.36,13,0,0,.07.72.19,1.1.13-.43.16-2.18.08-3.12-.02-.24.31-.63.29-1.94-.01-.65-.86-10.61-.82-10.85.37,1.77,1.22,7.83,1.29,10.95.03,1.25-.36,1.6-.32,1.87.21,1.55.05,3.05-.26,3.92-.12-.04-.21-.17-.25-.24.2,1.19.45,2.13.45,2.13.43-.99.68-2.06.61-4.71,0-.21.36-.8.42-2.16.06-1.29-.77-11.41-.82-12.27.5,2.16,1.08,6.79,1.31,11.51.08,1.68-.51,2.93-.49,3.17.08.84.07.79.05,1.52-.02.87-.08,1-.08,1,.27-.66,1.17-2.93.82-10.11-.23-4.72-.58-7.81-.58-7.81.41,1.32.77,4.17,1.01,7.46.27-.48.68-1.6.53-4.02-.15-2.48-.43-4.52-.43-4.52,0,0,.48,1.47.81,3.88.07.58.12,1.09.14,1.55.81-1.44.44-4.2.01-7.06.39.93,1.09,3.57.9,5.54,1.33-1.33.61-3.97.1-6.99.76,1.8,1.31,4,1.13,5.45,1.08-1.49.68-3.47-.29-7.34.58,1.02,1.39,3.47,1.44,4.98.71-1.75-.11-4.67-.81-7.03M91.01,20.62c-4.73-4.67-11.5-4.99-13.26-4.86-.42.03-.89.36-.37,1.04-.38.17-1.83.05-2.37-.46-.55.51-1.99.64-2.37.46.52-.68.05-1.01-.36-1.04-1.78-.13-8.9.56-13.2,4.76,2.37,3.13,7.32,9.68,7.42,9.81.1.12.34.29.64.29.04,0,.08,0,.12,0,.26-.01.5-.19.76-.47.51-.56.77-.87,1.27-1.39.97-.99,1.89-1.75,2.04-1.89.41-.38.55-.68.56-1-.03-.36-.31-.5-.48-.72-.01.03-.06.09-.09.13-.16-.12-.34-.68-.34-.68l-.09.25s-.36-.88-.94-.8c-.79.11-1.31-.23-1.36-.25-.05-.01-.08.25-.06.56-.01,0-.02,0-.03-.01-.55-.46-.71-1.65.34-2.42.64-.47.76-.46,1.26-.69.21-.1.37-.3.42-.36.33-.41,1-.63,1.39-.74.48-.13,1.63-.29,2.77-.22.64.04,1.25.18,1.68.36.34.14,1.32.86,1.87,1.57.36.47.97,1.8,1.31,2.64.72,1.76.64,1.57,1.13,2.74.56,1.34.9,2.08,1.44,2.83.19.26.38.36.75.38.27.01.54-.04.78-.18.21-.13.26-.21.33-.31,1.66-2.41,4.75-6.28,7.06-9.34M77.97,48.7s.63-.6.86-2.57c.12.15.35.29.41.57.4-.49,1.19-3.13,1.28-4.03.26.11.03.06.33.21.22-.39.67-1.89.87-3.97.1.03.27.03.34.12.14-.95.28-2.49.32-3.56.04-.92.01-2.82-.38-3.9-.4-1.08-.58-1.67-1.21-2.66,0,0-.22.11-.34.27-.17-.53-.65-1.8-.89-2.26-.6-1.17-.88-1.92-1.51-2.31.29.02.39.08.75.06-.41-.38-.56-.64-1.02-1,.15-.1.41-.09.85-.02-.61-.56-.82-1.41-2.4-2.01.28-.05.5.04.88.03-.2-.31-.68-.82-1.47-1.06-1.62-.32-3.85-.37-4.9.86-.07.09-.35.15-.61.24-.18.06-.25.12-.3.15-.18.13-.21.31.13.81-.46-.07-.57-.5-.65-.46-.17.11-.31.24-.48.49-.15.23-.29.71-.25.91.05.04.43.22.51-.23.03-.16.74-.22.98-.22.35,0,.68.09,1.13.06-.16.06-.66.2-.84.25-.2.06-.22.27-.03.28.21.02.3-.07.5-.11.09.06,0,.28.07.41,1.3-.3,1.4,1.1,2.79.83-.66-.51-1.21-1.37-1.73-1.62,1.37.21,2.12,1.45,3.6,1.51q-.05-.14-.18-.4c.51,0,.87.39,1.02.38-.19.2-.62.37-1.19.45.1.19.66.23.84.26-.3.27-.64.4-1.31.27-.22.2-.52.67-1.48,1.25q.01-.24.05-.46c-.64.37-1.05,1.04-1.53,1.23.14-.24.26-.65.36-.86-1.67,1.51-3.27,2.97-3.87,4.06-.67,1.22-.88,2.48-.8,4.56.06,1.11.54,4.27.62,4.89.13-.06.23-.11.34-.15.4,2.31,1.6,5.56,2.23,6.62.11-.26.18-.36.37-.49.1.62.42,1.32.94,1.77-.01-.42.17-.66.21-.81.14.45.06,1.84.86,2.61-.04-.38.09-.71.21-1.22.13.44.17,1.01.38,1.46.25.53.56,1.06.85,1.19-.03-1.1.14-1.04.17-1.49.02.1.43.49.64,1.87.81-.62,1.12-2.67,1.12-2.66,0,0,.23.2.41.77.71-.74.92-1.71,1.13-2.45.07.52.09,1.02.03,1.28M78.79,59.52c.98-.01,1.23,0,1.61-.06-.02-.11-.05-.22-.06-.31-.01-.07-.02-.15-.03-.23,0,0-.01,0-.02,0-.34.08-.98.27-1.85.12-.42-.08-.43-.09-.76-.19-.29-.09-.76.4-1.13.79-.31.33-.72.8-.91.99-.03.03-.03.07,0,.1.33.3,4.36,3.98,4.61,4.21.06.06.11.06.19-.02.18-.19.45-.47.7-.73,0,0-3.98-3.74-4.04-3.8-.06-.06-.07-.14-.04-.17.03-.03.2-.21.23-.25.03-.04.12-.04.18.02.06.07,1.31,1.23,1.31,1.23l1.71,1.53,1.08.96c.15-.16.14-.13.18-.17.16-.18.12-.3-.43-.82-.15-.15-2.79-2.78-2.79-2.78-.27-.31-.07-.41.24-.41M72.58,60.36c-.06.06-4.04,3.8-4.04,3.8.26.26.52.54.7.73.08.08.12.07.19.02.25-.23,4.27-3.9,4.61-4.21.04-.03.04-.07.01-.1-.19-.19-.6-.66-.91-.99-.36-.39-.83-.87-1.13-.79-.32.1-.34.1-.76.19-.87.15-1.51-.04-1.85-.12-.03,0-.06-.02-.09-.03,0,.1-.02.19-.03.28-.01.08-.03.17-.05.27.42.08.64.06,1.67.08.31,0,.51.1.24.41,0,0-2.63,2.63-2.78,2.78-.55.52-.58.65-.42.82.04.05.02.02.18.17l1.08-.96,1.71-1.53s1.25-1.16,1.3-1.22c.06-.07.15-.06.18-.02.03.04.2.21.23.25.03.03.02.11-.04.17M72.98,50.96s0-.24-.15-.54c-.08-.16-.34-.36-.47-.52-.11-.13-.12-.2-.12-.2-.03.15.04.51.08.66.05.17.16.33.34.45.2.13.31.16.31.16M72.94,58.61s.3.28.35.34c.06-.41.26-1.78.18-1.91-.46.88-.52,1.48-.53,1.57M71.33,58.51c.15-.06.53-.23.74-.28.05-.01.13-.03.15-.03h0c.12-.41.31-1.04.44-1.33-.12-.03-1.13,1.36-1.33,1.64M74.29,59.98c-.02-.54-.04-1.13-.08-1.39-.17.25-.28.61-.36.94.04.04.39.41.44.45M74.56,56.38s-.1-.69-.61-.92c.02.5.61.92.61.92M74.97,55.24s0,0,0-.02c0,0,0,.01,0,.02,0,0,.08-.19.37-.4.19-.14,1.31-.81,1.53-1.11.22-.3.31-.7.31-.7,0,0-.2.32-.65.58-.38.22-1.26.77-1.42,1.04-.08.14-.11.25-.12.35,0-.08-.03-.16-.07-.26-.27-.57-1.09-.8-1.58-1.37-.32-.37-.33-.52-.33-.52-.01.38.06.66.22.87.14.19.55.54,1.09.9.55.36.66.63.66.63M74.44,53.2c0-.89-.98-1-1.21-1.88-.11,1.25.76,1.27,1.21,1.88M74.89,56.76s.12-.05.41-.22c.25-.15.46-.32.59-.56.13-.25.11-.47.09-.62,0,0-.06.23-.38.53-.14.13-.33.32-.45.46-.17.21-.26.41-.26.41M75.75,57.29c.09.54.16,1.78.18,2.19,0,0,0,0,0,0,.14-.14.3-.3.45-.45-.03-.19-.21-1.18-.63-1.73M74.95,60.55s.32-.39.48-.55c0-.01.02-.02.02-.03-.09-.69-.25-1.55-.48-1.87-.05.32-.04,1.53-.02,2.45M74.95,60.91c0,.3.01.53.01.65.03-.03.31-.33.31-.33,0,0-.25-.22-.33-.31M75.16,61.98c.56.59,1.31,1.37,1.8,1.85.32-.31.52-.5.52-.5l-1.93-1.77c-.08.09-.22.23-.4.42M77.44,64.29c.42.41.88.88,1.25,1.25.22-.24.4-.44.54-.59l-1.26-1.17s-.2.2-.53.52M77.81,58.32c-.2-.27-.74-.97-1.2-1.39.31.74.45,1.21.5,1.39h0s.05-.03.07-.04c.07-.04.16-.06.25-.06.08,0,.16.03.26.06,0,0,.07.03.11.04M77.35,51.07c-.25.4-.46.63-.77.91.1-.29.13-.62.13-.62-.15.31-.51.74-.74.98-.58.57-.68,1.13-.68,1.13,0,0,.15-.2.84-.61.73-.43,1-1.09,1.23-1.78M68.35,43.27c0,.7.49,1.67,1.16,2.05-.4-1.07-.71-1.42-1.16-2.05M91.36,20.15c.16-.21.32-.43.48-.64-2.16-1.91-5.37-3.84-8.89-4.61-2.38-.51-4.28-.56-5.48-.54-.98.01-1.61.39-1.61,1-.61-.11-.77-.88-.85-1.02-.06.32-.36.95-.85,1.02,0-.61-.63-.99-1.61-1-1.2-.02-3.09.03-5.48.54-3.59.78-6.68,2.54-8.84,4.48.16.21.32.42.48.63,1.94-1.83,4.53-3.27,7.28-4.08,2.29-.67,5.09-.91,6.39-.85,1.15.05,1.32.71,1.18,1.06.51.05,1.28-.39,1.45-.69.12.23.82.74,1.45.69-.14-.36.03-1.01,1.18-1.06,1.29-.06,4.1.18,6.38.85,2.7.79,5.4,2.42,7.33,4.2M92.66,17.82c.24.84.5,1.78,1.21,2.35.1.08.2.15.32.21h.01c-.01-1.6.53-2.47.95-3.42h0s0,0,0,0c.6.09,1.38.31,2.99.02-1.52-1.03-1.19-2.17-2.32-3.43-.12-.13-.26-.27-.42-.41-.4-.29-.7-.39-.92-.39-.28,0-.43.14-.52.23-.15.16-1.73,1.86-2.77,3.03.93-.02,1.18.83,1.46,1.82M93.7,12.18c-1.06-1.05-2.75-2.21-4.77-3.09-5.28-2.32-11.99-2.33-13.91-2.33,0,0,0,0,0,0,0,0,0,0,0,0-1.92,0-8.62.01-13.9,2.33-2.02.89-3.71,2.05-4.77,3.09,0,0,2.39,2.68,3.01,3.41.33.38.43.7.24,1.27,3.67-2.46,7.84-3.69,15.28-3.74h.33c7.31.07,11.61,1.3,15.24,3.74-.19-.57-.09-.89.24-1.27.62-.73,3.01-3.41,3.01-3.41M56.06,12.97s0,0,0,0c-.15-.16-.52-.49-1.44.17-1.64,1.42-1.11,2.7-2.8,3.84.6.11,1.09.15,1.49.15.27,0,.51-.02.71-.04.31-.04.56-.09.79-.12h0c.42.95.96,1.81.95,3.42,1.97-1.04,1.17-4.41,3-4.38-1.04-1.16-2.53-2.85-2.7-3.03M57.34,19.76c1.44,1.92,2.53,3.37,2.75,3.67.5.69,2.23,2.77,2.22,2.5-.01-.16-1.07-1.63-1.73-2.54-.97-1.32-1.99-2.68-2.99-4.01-.09.14-.18.27-.25.38M64.7,32.51c0,1.36.26,2.36.7,4.02.05-1.76-.29-3.55-.7-4.02M63.8,30.97c-.09.63-.08,1.41.06,2.01.1.41.28.79.42,1.16.06-1.22-.24-2.55-.48-3.16M67.18,42.89c.22-.75.48-5.55-1.3-7.62.46,1.86,1.05,4.03,1.3,7.62M61.81,71.17c1.38.53,5.21.58,7.01.36,2.29-.29,4.05-.98,5.52-2.02-.38-.33-.85-.76-1.34-1.22-.77.62-1.45,1.11-1.89,1.29-2.74,1.11-6.35,1.38-6.35,1.38,0,0,4.7-1.07,6.34-1.96.31-.17.84-.59,1.47-1.12-.61-.58-1.2-1.17-1.65-1.62-.3.27-.54.45-.87.69-.6.43-1.5.75-2.19,1.05-3.35,1.34-5.54,2.74-6.05,3.16M73.3,70.94s.08.28.18.49c.02.05.21.48.24.53.22-.24.48-.58.69-1l.48-.99s-.01,0-.02-.02c-.03.02-.29.22-.44.31-.21.14-.42.27-.63.4-.08.05-.4.22-.47.26-.01,0-.02.01-.04.02M82.65,42.89c.26-3.59.84-5.76,1.3-7.62-1.78,2.07-1.52,6.88-1.3,7.62M83.07,34.89c.57-1.7.09-2.56-.24-2.73-.01.78.2,1.15.24,2.73M84.52,36.6c.44-1.66.69-2.66.69-4.02-.4.48-.74,2.27-.69,4.02M85.63,34.2c.14-.36.33-.75.42-1.16.14-.59.15-1.38.06-2.01-.25.61-.55,1.94-.48,3.17M90.16,23.32c.2-.28,1.2-1.62,2.55-3.41-.1-.11-.19-.24-.26-.36-.93,1.24-1.87,2.5-2.77,3.73-.67.91-1.73,2.38-1.74,2.54-.02.27,1.72-1.81,2.22-2.5M97.93,14.42c-.15.2-.48.64-.48.64.42.76.87,1.54,2.05,2.17-.47-.96-1-1.9-1.57-2.81M96.83,13.76c.03.06.18.32.22.38,2.74-3.64,5.25-6.97,5.25-6.97,0,0-1.06.75-2.59,1.46.15.82-.37,1.85-.57,2.1-.08.1-.99,1.28-2.32,3.03M61.53,4.23h0c-.23.13-.46.45-.46.83-.55.56-.85,1.34-.54,2.27-2.88,1.19-5.43,3.01-7.34,5.39.13.17.27.35.41.54,2.04-2.62,4.77-4.49,8.06-5.72-.26-.39-.63-1.25.33-2.18,0,0,0,0,0,0,1.42.18,1.77,1.04,1.86,1.48,2.56-.69,5.6-1.12,8.99-1.24.12-2.34,1.77-2.9,1.77-2.9,0,0,.03-.44.39-.59,0,0,0,0,0,0,.36.15.38.59.38.59,0,0,1.66.56,1.78,2.9,3.39.12,6.42.55,8.99,1.24.09-.44.44-1.3,1.86-1.48,0,0,0,0,0,0,.96.94.59,1.8.33,2.18,3.29,1.24,6.1,3.18,8.14,5.79.15-.19.29-.38.42-.56-1.91-2.36-4.58-4.27-7.44-5.45.31-.93,0-1.71-.54-2.27,0-.38-.22-.7-.46-.82,0,0,0,0,0,0-.27-.03-.68.09-.96.38-.83.12-1.64.55-2.08,1.43-2.12-.51-4.51-.85-7.56-1.01-.07-1.4-.89-2.27-1.89-2.77-.21-.49-.63-.77-.99-.85-.36.09-.79.36-.99.85-1,.5-1.82,1.36-1.89,2.77-3.05.16-5.45.5-7.56,1.01-.44-.88-1.25-1.31-2.08-1.43-.28-.29-.69-.42-.96-.38M53.02,14.03c.08-.15.17-.27.24-.36-1.24-1.63-2.08-2.72-2.16-2.82-.2-.25-.72-1.28-.56-2.1-1.53-.71-2.59-1.46-2.59-1.46,0,0,2.4,3.19,5.07,6.74M50.47,17.26c.23-.14,1.02-.63,1.5-1.31.25-.34.43-.68.58-.99-.02-.03-.52-.67-.52-.67-.57.96-1.09,1.95-1.57,2.96M46.17,37.26c.31.47,1.23,1.51,7.64,5.16.09-2.33.7-10.24,4.68-19.71-.57-.76-1.13-1.5-1.68-2.23-.41.43-.93.73-1.71.96.03-1.77-.36-2.74-.84-3.78-.71.02-1.92.05-3.82-.36-2.53,5.4-3.81,11.69-4.27,19.95M69,75.19l.03-.08c.19-.52,1.31-3.18,1.31-3.18-.05,0-.09.02-.14.02-.5.09-1.02.16-1.53.22-.3.03-4.75.72-7.98-.8.47-.33,1.45-1.15,2.79-1.93.02-.14.05-.27.07-.41-.74.4-1.45.46-1.99.44-.05-.46.08-1.07.33-1.75-.71.15-1.24-.01-1.24-.01,0,0,.46-1.43,1.47-3.14.78-1.34,1.83-2.69,2.81-3.88-.06-.13-.1-.28-.1-.45,0-.19.03-.35.05-.46.11-.6.58-1.1.63-1.16.03-.03.17-.18.19-.21-.13-.12-.26-.22-.38-.31-.13.14-.23.21-.32.24-.37.17-.6.23-.8.24-.41.02-.65-.07-.79-.27l-.03-.05c-.3-.08-.51-.26-.58-.5-.02-.05-.02-.1-.02-.15-.22.08-.38.09-.59-.08-.29-.25.11-1.49,1.47-2.78.95-.9,1.85-1.43,2.68-1.79.64-.28,1.02.27.71.65-.38.45-.67,1.25-.29,2.08.39-.13.55-.19.6-.22.15-.06.33-.11.54-.38.02-.02.04-.07.07-.14l-.57.07c.29-.71-.16-2.46.14-3.6-.07.05-.27.19-.39.23-.21-1.03-.18-2.67-.1-3.46-.01-.22-.33-.61-.76-1.03-.31.57-.79,1.19-1.53,2.16-.66.86-1.84,1.64-2.45,4.4,0,0,0,.01,0,.02-.03.11-.05.22-.08.33h0c-.04.12-.07.24-.11.35-.03.07-.06.15-.09.22-.04.12-.1.24-.15.36-.4.87-.37,1.38-.37,1.38h0c.04,1.73-.03,5.33-.43,7.35-.35,1.77-.94,2.67-.94,2.67l-.09-.08c-.15.6-.42,1.65-1.07,2.48,0,0-.55-1.18-1.56-10.16-1.1-9.89-1.66-20.21-1.66-20.21h0c-.1-1.83.25-3.97.77-5.52.85-2.51,2.47-4.9,3.43-5.9.26-.27.57-.49.93-.59,0,0,.21-.06.32-.07h0c-.7-.93-1.4-1.87-2.1-2.78-4.35,10.75-4.41,19.3-4.41,19.39l-.04,1.02-.86-.5c-4.89-2.7-6.45-3.84-7.7-4.93-.05,1.06-.15,4.55-.15,4.55,0,.06,0,.82,0,2.19,0,4.19.75,14.47,4.17,21.54.48.88,1.75,3.24,4.06,5.41,1.75,1.65,3.79,2.82,6.06,3.55.13.04.39.13.53.17,2.61.83,5.45.66,8.25-.74M68.81,78.1c.52-.43,1.33-.75,2.34-.33.08-1.64.36-3.9.68-5.51-.08.07-.26.2-.33.25-.07.05-.21.14-.26.17-.01,0-.02,0-.02,0s-.01,0-.02,0c-.03-.02-.1-.11-.11-.13-.36.86-2.26,5.52-2.27,5.56M78.73,79.01c.07-1.46-.62-5.74-.92-7.49h0c-.1-.04-.21-.07-.31-.11-.08.24-.18.48-.3.72-.21.45-.55.91-.61.9-.05,0-.95-.61-1.52-1.79-.57,1.16-1.45,1.75-1.5,1.76-.07,0-.4-.46-.61-.91-.12-.25-.22-.5-.3-.75-.01.02-.02.03-.04.05-.28,1.79-.92,6.16-.86,7.62-1.93-1.28-3.11,0-2.71.89.04.08.08.15.13.21.24.31.54.48.96.51.62.04,1.45.1,2.38.54.85.4,1.78,1.07,2.72,2.24.94-1.17,1.86-1.84,2.71-2.24.94-.44,1.76-.5,2.39-.54.42-.03.72-.23.96-.51.05-.06.09-.13.13-.21.4-.89-.78-2.17-2.71-.89M81.7,78.1s-2.03-5-2.26-5.54c0,0,0,0,0,0-.02.04-.05.08-.09.1-.01,0-.02.01-.02.01,0,0-.01,0-.03,0-.1-.05-.39-.22-.74-.55.37,1.43.71,3.75.8,5.64,1.01-.42,1.82-.1,2.34.33M104.05,43.16c-.02-1.41-.11-3.51-.16-4.57-1.25,1.09-2.81,2.23-7.7,4.93l-.86.5-.04-1.02c0-.09-.05-8.58-4.36-19.28-.67.89-1.35,1.79-2.03,2.69.01,0,.03,0,.04.01.06.02.11.03.17.05.33.13.61.32.86.58.96,1,2.52,3.41,3.42,5.9.49,1.56.88,3.7.78,5.53h0s-.56,10.32-1.67,20.21c-1.01,8.98-1.56,10.16-1.56,10.16-.64-.83-.91-1.88-1.06-2.48l-.1.08s-.59-.9-.94-2.67c-.4-2.01-.47-5.62-.43-7.36h0s.03-.5-.37-1.37c-.19-.41-.33-.82-.43-1.26,0,0,0-.01-.01-.02-.61-2.76-1.79-3.54-2.44-4.4-.82-1.07-1.33-1.72-1.62-2.35-.48.46-.85.93-.87,1.19.16,1.67.32,2.85.07,3.7-.1-.05-.26-.22-.35-.28.11,1.1-.41,2.38-.08,3.39l-.65-.09c.03.07.05.13.07.16.09.12.17.2.33.28.03.02.16.08.21.1.06.03.22.09.67.24.38-.83.09-1.63-.29-2.08-.31-.38.06-.93.71-.64.83.37,1.73.89,2.68,1.79,1.36,1.29,1.76,2.54,1.47,2.79-.22.19-.39.15-.66.06,0,.05,0,.1-.02.15-.07.24-.28.42-.58.5l-.03.05c-.15.2-.38.28-.79.27-.35-.01-.74-.21-.8-.24-.07-.04-.16-.09-.27-.19-.12.09-.25.2-.38.32.01.01.15.16.15.16.09.09.53.57.63,1.16,0,0,.03.18.04.27,1.13,1.34,2.45,2.97,3.4,4.58,1,1.71,1.47,3.14,1.47,3.14,0,0-.53.16-1.24.01.25.68.38,1.29.33,1.75-.54.02-1.25-.04-1.99-.44.05.23.09.47.11.7,1,.65,1.75,1.26,2.14,1.54-3.23,1.51-7.91.82-8.01.81-.27-.04-.51-.07-.72-.1,0,0-.14-.03-.15-.03,0,0,1.15,2.74,1.36,3.19,2.05.94,3.96,1.56,6.9,1.07,0,0,.5-.05,1.76-.47,1.29-.43,3.7-1.85,5.55-3.59,2.31-2.16,3.71-4.45,4.16-5.34,3.58-6.99,4.17-17.35,4.17-21.54,0-1.37,0-2.11,0-2.18M78.33,40.28s1.44-1.38,1.39-3.11c-.41,1.16-1.39,1.65-1.39,1.65,0,0-.54-.34-.79-1.09-.19,1.75.8,2.56.79,2.55M75.45,28.96c-.86.93-.33,1.7-.33,1.7,0-.01,1.04-1.13.33-1.7M75.13,32.13c-.96,1.43,0,2.93,0,2.92,0-.01.66-2,0-2.92M72.85,30.07c-1.4,1.06-.74,2.04-.49,2.58.29-1.03.41-1.31.49-2.58M73.19,43.09c-.18-.05-1.02-.83-1.28-1.32.13.79,1.21,2.34,1.73,2.66.17-.28.8-1.53.25-3.53-.24,1.21-.48,1.82-.7,2.2M72.15,33.29c-.94,1.18.51,2.65.51,2.67,0-.01.12-2.23-.51-2.67M73.67,39.54c.24-.53.92-1.53.57-3.2-.12,1.25-.93,1.81-.92,1.81,0,0-.45-.25-.81-1.01.12,1.53.69,1.98,1.17,2.4M72.94,47.42c-.14-.45-.38-1.97-.96-2.63-.23,1.1.49,2.16.96,2.63M90.49,10.87c-.42-.13-.86-.24-1-.45.18-.15.44.05.58.17.09-.09.14-.13.25-.23-.44-.36-1.14-.15-1.29.22.13.07.32.14.39.22-.15.05-.42.19-.53.27.68-.06,1.31.11,1.6-.2M89.31,11.45c-.5.22-.59.36-.82.89-.27.65-.52,1.29-.84,1.88.19.08.45-.08.63-.2.84-.52,1.45-1.94,1.78-2.79,0-.03-.5.1-.76.22M87.81,11.99c-.14.47-.48.75-.7,1.04-1.18-.46-3.78-1.12-5.21-1.26-.38.43-.97.99-1.57,1.14-.89-.11-1.46-.34-2.08-.6.34.02.45.02.69.01.88-.03,1.66-.3,2.23-.65-1.24-.19-1.54-.53-.94-1.32.28-.36.73-1.01,1.39-.84.52.13.65.87.59,1.42,1.45.18,3.31.68,4.73,1.16.09-.41-.17-.61-.34-.9.22-.22.53-.49.78-.65.36.2.57,1,.43,1.46M80.94,10.13s-.25.14-.37.39c.11.17.33.24.66.29.04,0,.13.01.18.02.16-.36-.17-.81-.47-.7M82.89,12.2c-.27.13-.58.32-.78.45.21.21.37.37.6.6.32-.17.46-.25.81-.43-.23-.23-.38-.39-.62-.61M77.38,7.76c-.26-.19-.44-.33-.72-.52-.24.16-.52.39-.7.54.24.18.42.32.69.52.28-.21.41-.31.73-.53M65.42,13.08c.29.13.5.22.81.36.22-.26.32-.39.56-.67-.31-.14-.52-.24-.84-.36-.19.21-.4.49-.53.67M78.51,11.22c-3.45-.19-10.19.17-13.5,1.08,0,0-.35-.86-.64-1.17-.88-.94-1.24.08-1.25.2,1.11.06,1.3.63,1.3.63-.26.48-.46.64-1.07,1.06-.2.13-.91.58-1.89.66-2.09.1-1.52-2.07-.25-2.96-.16.2-.91,1.33-.45,1.91.52.65,2.44.12,2.91-.46-.26-.24-.72-.31-1.41-.25.03-.34.19-1.23,1.19-2.08.36.08,1.38.63,1.73,1.5,3.05-.82,8.62-1.05,8.89-1.06-.06-.53-.25-2.52-.26-2.64-.03-.33.19-.48.4-.61.23.41.45.59.96.78-.2.24-.39.34-.62.52.03.4.07,1.13.08,1.42.49-.21,1.19-.51,2.03-.7.3-.07.68-.12.92-.08.3.04.64.19.81.34.14.13.33.35.33.64,0,.49-.09.92-.22,1.26M77.8,9.92c-.43-.7-2.03-.07-3.04.35.59,0,1.09-.03,1.72-.01.26,0,.92,0,1.36.02.04-.13.06-.22-.04-.36M63.43,13.65c-.2-.06-.38-.12-.62-.18-.16.23-.33.53-.43.72.31.09.53.17.85.27.13-.2.21-.33.32-.5.19.06.37.12.6.19.18-.28.26-.42.47-.72-.33-.1-.55-.18-.88-.27-.11.15-.21.33-.31.49"/>
    </g>
  </g>
</svg>