<?xml version="1.0" encoding="UTF-8"?>
<svg id="Layer_1" data-name="Layer 1" xmlns="http://www.w3.org/2000/svg" viewBox="0 0 1000 1000">
  <defs>
    <style>
      .cls-1 {
        fill: #7587c1;
      }

      .cls-2 {
        fill: #38a8e0;
      }

      .cls-3 {
        fill: #e5005b;
      }

      .cls-4 {
        fill: #ea5b0a;
      }

      .cls-5 {
        fill: #823f91;
      }

      .cls-6 {
        fill: #38b5aa;
      }

      .cls-7 {
        fill: #68b530;
      }
    </style>
  </defs>
  <g id="Group_1227" data-name="Group 1227">
    <path id="Path_1228" data-name="Path 1228" class="cls-6" d="M637.99,81.23c0-.32.01-26.17.02-61.93C595.71,7.21,552.01.75,508.02.1v215.38c71.7-4.02,128.28-62.46,129.97-134.25"/>
  </g>
  <g id="Group_1229" data-name="Group 1229">
    <path id="Path_1230" data-name="Path 1230" class="cls-2" d="M363.2,975.95v5.1c42.17,11.93,85.72,18.27,129.53,18.86v-161.13c-72.8,3.64-129.53,63.42-129.53,137.17"/>
  </g>
  <g id="Group_1230" data-name="Group 1230">
    <path id="Path_1231" data-name="Path 1231" class="cls-2" d="M508.02,838.78v161.12c44.06-.65,87.85-7.13,130.21-19.27v-4.68c.19-73.16-57.14-133.56-130.21-137.17"/>
  </g>
  <g id="Group_1233" data-name="Group 1233">
    <path id="Path_1234" data-name="Path 1234" class="cls-2" d="M434.47,231.68h-72.4l35.59,66.73,36.81-66.73Z"/>
  </g>
  <g id="Group_1235" data-name="Group 1235">
    <g id="Group_1234" data-name="Group 1234">
      <path id="Path_1235" data-name="Path 1235" class="cls-2" d="M695.79,360.66v-128.98c-34.55,1.47-61.82,29.9-61.84,64.49.02,34.59,27.28,63.02,61.84,64.49"/>
    </g>
  </g>
  <g id="Group_1239" data-name="Group 1239">
    <path id="Path_1240" data-name="Path 1240" class="cls-2" d="M653.05,976.1c19.8-6.36,39.17-13.96,58.01-22.75v-265.17h-58.01v287.92Z"/>
  </g>
  <g id="Group_1241" data-name="Group 1241">
    <path id="Path_1242" data-name="Path 1242" class="cls-2" d="M802.21,366.16h179.64c-13.17-47.5-33.33-92.78-59.81-134.35h-119.84v134.35Z"/>
  </g>
  <path id="Path_1245" data-name="Path 1245" class="cls-2" d="M711.06,366.17h75.96v-134.48h-75.96v134.48Z"/>
  <g id="Group_1246" data-name="Group 1246">
    <path id="Path_1250" data-name="Path 1250" class="cls-2" d="M287.47,47.33c-80.11,37.74-148.82,96.01-199.14,168.88h199.14V47.33Z"/>
  </g>
  <path id="Path_1253" data-name="Path 1253" class="cls-6" d="M168.46,577.19h119.01v-195.43h-119.01v195.43Z"/>
  <g id="Group_1251" data-name="Group 1251">
    <path id="Path_1259" data-name="Path 1259" class="cls-2" d="M570.44,295.26c0-32.98-27.33-60.04-62.42-63.58v127.15c35.09-3.53,62.42-30.6,62.42-63.57"/>
  </g>
  <path id="Path_1274" data-name="Path 1274" class="cls-2" d="M168.1,673.61h324.63v-81.48H168.1v81.48Z"/>
  <g id="Group_1267" data-name="Group 1267">
    <path id="Path_1278" data-name="Path 1278" class="cls-2" d="M637.57,144.97h0c-7.23,15.02-16.86,28.75-28.52,40.66-12.27,12.54-26.6,22.89-42.38,30.58h70.9v-71.24Z"/>
  </g>
  <g id="Group_1269" data-name="Group 1269">
    <path id="Path_1280" data-name="Path 1280" class="cls-2" d="M153.82,673.61v-74.67c-7.45,15.53-17.42,29.72-29.49,42.01-13.31,13.61-28.99,24.68-46.27,32.67h75.76Z"/>
  </g>
  <g id="Group_1270" data-name="Group 1270">
    <path id="Path_1281" data-name="Path 1281" class="cls-2" d="M985.95,381.94c-77.8,3.72-138.97,67.86-139.01,145.75.03,71.64,52.04,132.68,122.78,144.07,20.1-55.03,30.35-113.18,30.29-171.77.02-39.77-4.7-79.4-14.05-118.05"/>
  </g>
  <path id="Path_1283" data-name="Path 1283" class="cls-2" d="M713.29,577.19h119.01v-195.43h-119.01v195.43Z"/>
  <g id="Group_1273" data-name="Group 1273">
    <path id="Path_1286" data-name="Path 1286" class="cls-2" d="M876.43,640.95c-12.07-12.29-22.04-26.48-29.49-42.01v74.67h75.76c-17.28-7.99-32.95-19.06-46.27-32.67"/>
  </g>
  <g id="Group_1274" data-name="Group 1274">
    <path id="Path_1287" data-name="Path 1287" class="cls-2" d="M638.07,908.86v-70.09h-70.02c30.47,14.94,55.11,39.6,70.02,70.09"/>
  </g>
  <g id="Group_1245" data-name="Group 1245">
    <path id="Path_1249" data-name="Path 1249" class="cls-3" d="M197.92,231.68h-119.88c-26.58,41.7-46.79,87.13-59.97,134.79h179.85v-134.79Z"/>
  </g>
  <path id="Path_1254" data-name="Path 1254" class="cls-3" d="M287.47,231.68h-73.91v134.79h73.91v-134.79Z"/>
  <g id="Group_1258" data-name="Group 1258">
    <path id="Path_1268" data-name="Path 1268" class="cls-3" d="M828.81,688.19h-63.14l63.14,58.93v-58.93Z"/>
  </g>
  <g id="Group_1260" data-name="Group 1260">
    <g id="Group_1259" data-name="Group 1259">
      <path id="Path_1269" data-name="Path 1269" class="cls-3" d="M725.34,688.91v134.58c34.23-1.54,61.55-31.03,61.55-67.29s-27.32-65.75-61.55-67.29"/>
    </g>
  </g>
  <g id="Group_1261" data-name="Group 1261">
    <path id="Path_1271" data-name="Path 1271" class="cls-3" d="M828.81,762.4l-65.52,61.07h65.52v-61.07Z"/>
  </g>
  <g id="Group_1263" data-name="Group 1263">
    <g id="Group_1262" data-name="Group 1262">
      <path id="Path_1272" data-name="Path 1272" class="cls-3" d="M844.62,823.48h36.61c34.21-40.25,61.83-85.67,81.82-134.58h-118.42v134.58Z"/>
    </g>
  </g>
  <g id="Group_1265" data-name="Group 1265">
    <g id="Group_1264" data-name="Group 1264">
      <path id="Path_1275" data-name="Path 1275" class="cls-3" d="M390.33,185.63c-11.66-11.91-21.29-25.64-28.52-40.66h0v71.24h70.89c-15.77-7.69-30.1-18.03-42.37-30.58"/>
    </g>
  </g>
  <g id="Group_1223" data-name="Group 1223">
    <path id="Path_1224" data-name="Path 1224" class="cls-7" d="M168.56,747.11l63.14-58.93h-63.14v58.93Z"/>
  </g>
  <g id="Group_1225" data-name="Group 1225">
    <g id="Group_1224" data-name="Group 1224">
      <path id="Path_1225" data-name="Path 1225" class="cls-7" d="M272.03,823.48v-134.58c-34.23,1.54-61.55,31.03-61.55,67.29s27.32,65.75,61.55,67.29"/>
    </g>
  </g>
  <g id="Group_1226" data-name="Group 1226">
    <path id="Path_1227" data-name="Path 1227" class="cls-7" d="M168.56,823.48h65.52l-65.52-61.08v61.08Z"/>
  </g>
  <g id="Group_1231" data-name="Group 1231">
    <g id="Group_1228" data-name="Group 1228">
      <path id="Path_1229" data-name="Path 1229" class="cls-7" d="M362.12,81.62c1.9,71.89,58.8,130.22,130.62,133.9V.09c-44.21.59-88.14,7.04-130.65,19.18,0,35.95.01,61.98.02,62.34"/>
    </g>
  </g>
  <g id="Group_1238" data-name="Group 1238">
    <path id="Path_1239" data-name="Path 1239" class="cls-7" d="M363.74,295.91c-.02-34.45-27.17-62.76-61.59-64.23v128.45c34.42-1.46,61.57-29.78,61.59-64.22"/>
  </g>
  <g id="Group_1243" data-name="Group 1243">
    <path id="Path_1247" data-name="Path 1247" class="cls-7" d="M287.47,952.67c19.37,9.11,39.3,16.96,59.68,23.49v-287.98h-59.68v264.49Z"/>
  </g>
  <g id="Group_1250" data-name="Group 1250">
    <path id="Path_1258" data-name="Path 1258" class="cls-7" d="M346.63,24c-15.01,4.83-29.69,10.34-44.05,16.52v175.69h44.05V24Z"/>
  </g>
  <g id="Group_1252" data-name="Group 1252">
    <path id="Path_1260" data-name="Path 1260" class="cls-7" d="M430.78,294.5c0,32.65,27.15,59.44,61.96,62.82v-125.63c-34.82,3.38-61.96,30.16-61.96,62.82"/>
  </g>
  <path id="Path_1264" data-name="Path 1264" class="cls-7" d="M638.07,688.91h-130.04v134.57h130.04v-134.57Z"/>
  <path id="Path_1265" data-name="Path 1265" class="cls-7" d="M362.44,823.48h130.29v-134.57h-130.29v134.57Z"/>
  <g id="Group_1257" data-name="Group 1257">
    <g id="Group_1256" data-name="Group 1256">
      <path id="Path_1266" data-name="Path 1266" class="cls-7" d="M154.28,688.91H36.96c19.99,48.9,47.6,94.32,81.81,134.58h35.5v-134.58Z"/>
    </g>
  </g>
  <g id="Group_1266" data-name="Group 1266">
    <path id="Path_1277" data-name="Path 1277" class="cls-7" d="M601.72,298.41l35.85-66.73h-72.65l36.81,66.73Z"/>
  </g>
  <g id="Group_1271" data-name="Group 1271">
    <g id="Group_1268" data-name="Group 1268">
      <path id="Path_1279" data-name="Path 1279" class="cls-7" d="M153.82,456.44v-74.67h-75.76c17.28,7.99,32.95,19.06,46.27,32.67,12.08,12.28,22.04,26.48,29.49,42.01"/>
    </g>
  </g>
  <path id="Path_1284" data-name="Path 1284" class="cls-7" d="M832.65,592.13h-324.63v81.48h324.63v-81.48Z"/>
  <g id="Group_1276" data-name="Group 1276">
    <g id="Group_1272" data-name="Group 1272">
      <path id="Path_1285" data-name="Path 1285" class="cls-7" d="M876.43,414.43c13.31-13.6,28.99-24.67,46.27-32.67h-75.76v74.67c7.46-15.53,17.42-29.72,29.49-42.01"/>
    </g>
    <g id="Group_1275" data-name="Group 1275">
      <path id="Path_1288" data-name="Path 1288" class="cls-7" d="M363.2,838.77v70.09c14.91-30.49,39.54-55.15,70.02-70.09h-70.02Z"/>
    </g>
  </g>
  <g id="Group_1232" data-name="Group 1232">
    <path id="Path_1233" data-name="Path 1233" class="cls-4" d="M601.72,307.63l-94.07,99.71h188.14l-94.07-99.71Z"/>
  </g>
  <path id="Path_1244" data-name="Path 1244" class="cls-4" d="M592.92,577.19h102.87v-69.41h-102.87v69.41Z"/>
  <path id="Path_1246" data-name="Path 1246" class="cls-4" d="M695.79,422.62h-102.87v69.87h102.87v-69.87Z"/>
  <g id="Group_1253" data-name="Group 1253">
    <path id="Path_1261" data-name="Path 1261" class="cls-4" d="M508.02,422.62v153.47c39.4-3.98,69.4-37.13,69.42-76.74-.02-39.6-30.02-72.76-69.42-76.73"/>
  </g>
  <g id="Group_1236" data-name="Group 1236">
    <path id="Path_1237" data-name="Path 1237" class="cls-5" d="M302.58,407.33h190.16l-95.08-99.71-95.08,99.71Z"/>
  </g>
  <g id="Group_1237" data-name="Group 1237">
    <path id="Path_1238" data-name="Path 1238" class="cls-5" d="M153.82,527.69c-.03-78.18-61.65-142.45-139.75-145.79C4.71,420.56-.01,460.21,0,499.99c-.07,58.63,10.2,116.81,30.33,171.88,71.06-11.08,123.46-72.26,123.49-144.18"/>
  </g>
  <g id="Group_1247" data-name="Group 1247">
    <g id="Group_1244" data-name="Group 1244">
      <path id="Path_1248" data-name="Path 1248" class="cls-5" d="M272.54,945.38v-106.6h-140.23c40.09,43.53,87.57,79.62,140.23,106.6"/>
    </g>
  </g>
  <path id="Path_1252" data-name="Path 1252" class="cls-5" d="M302.58,577.19h106.14v-69.41h-106.14v69.41Z"/>
  <path id="Path_1255" data-name="Path 1255" class="cls-5" d="M408.71,422.62h-106.14v69.87h106.14v-69.87Z"/>
  <g id="Group_1249" data-name="Group 1249">
    <path id="Path_1257" data-name="Path 1257" class="cls-5" d="M652.43,23.69v99.39h176.09c-51.3-44.79-111.23-78.61-176.09-99.39"/>
  </g>
  <g id="Group_1254" data-name="Group 1254">
    <path id="Path_1262" data-name="Path 1262" class="cls-5" d="M423.07,499.38c.02,39.7,30.15,72.9,69.66,76.77v-153.53c-39.51,3.86-69.64,37.07-69.66,76.77"/>
  </g>
  <g id="Group_1242" data-name="Group 1242">
    <g id="Group_1240" data-name="Group 1240">
      <path id="Path_1241" data-name="Path 1241" class="cls-1" d="M725.34,946.43c53.12-26.89,101.02-63.03,141.48-106.71h-141.48v106.71Z"/>
    </g>
  </g>
  <g id="Group_1255" data-name="Group 1255">
    <g id="Group_1248" data-name="Group 1248">
      <path id="Path_1256" data-name="Path 1256" class="cls-1" d="M845.04,138.13h-192.61v78.08h259.25c-19.49-28.23-41.82-54.39-66.63-78.08"/>
    </g>
  </g>
</svg>